<svg><defs><font horiz-adv-x="1099"><font-face ascent="1638" bbox="-97 -428 2134 1839" cap-height="1378" descent="-410" panose-1="2 11 4 3 2 2 3 2 3 4" underline-position="-266" underline-thickness="122" unicode-range="U+000D-FB04" units-per-em="2048" x-height="975"/><missing-glyph d="M68 0v1365h544v-1365h-544zM136 68h408v1229h-408v-1229z" horiz-adv-x="748"/><glyph d="M35 905v70h145v112q0 78 24.5 135.5t65.5 95.5 96.5 56.5 114.5 18.5q92 0 151.5-28t94.5-54l-53-80q-29 23-76 46t-115 23q-86 0-141-48t-55-173v-104h233l-14-90h-219v-885h-107v885zM678 0v969l106 14v-983h-106z" glyph-name="uniFB01" horiz-adv-x="927" unicode="&#x66;&#x69;"/><glyph d="M35 905v70h145v98q0 80 26.5 140.5t74 100.5 112 59.5 139.5 19.5q98 0 166-20.5t109-43.5v-1147q0-57 16.5-80.5t57.5-23.5 88 26l32-77q-61-39-133-39-92 0-130 47t-38 147v1082q-29 16-68.5 26t-103.5 10q-49 0-93-12t-76.5-40.5-52-74-19.5-110.5v-88h233l-14-90h-219v-885h-107v885z" glyph-name="uniFB02" horiz-adv-x="1017" unicode="&#x66;&#x6c;"/><glyph d="M35 905v70h145v115q0 156 69.5 229.5t188.5 73.5q72 0 117-14.5t76-30.5l-37-88q-29 16-65.5 28t-86.5 12q-72 0-113.5-46t-41.5-173v-106h426v112q0 78 24.5 135.5t65.5 95.5 96 56.5 115 18.5q92 0 151.5-28t94.5-54l-54-80q-29 23-76 46t-114 23q-86 0-141.5-48t-55.5-173v-104h234l-15-90h-219v-885h-106v885h-426v-885h-107v885zM1210 0v969l107 14v-983h-107z" glyph-name="uniFB03" horiz-adv-x="1460" unicode="&#x66;&#x66;&#x69;"/><glyph d="M35 905v70h145v115q0 156 69.5 229.5t188.5 73.5q72 0 117-14.5t76-30.5l-37-88q-29 16-65.5 28t-86.5 12q-72 0-113.5-46t-41.5-173v-106h426v98q0 80 26.5 140.5t73.5 100.5 111.5 59.5 140.5 19.5q98 0 165.5-20.5t108.5-43.5v-1147q0-57 16.5-80.5t57.5-23.5 88 26l33-77q-61-39-133-39-92 0-130 47t-38 147v1082q-29 16-69 26t-103 10q-49 0-93-12t-77-40.5-52.5-74-19.5-110.5v-88h234l-15-90h-219v-885h-106v885h-426v-885h-107v885z" glyph-name="uniFB04" horiz-adv-x="1550" unicode="&#x66;&#x66;&#x6c;"/><glyph d="M68 0v1365h544v-1365h-544zM136 68h408v1229h-408v-1229z" glyph-name=".notdef" horiz-adv-x="748"/><glyph glyph-name=".null" horiz-adv-x="0"/><glyph glyph-name="uni000D" horiz-adv-x="409" unicode="&#xd;"/><glyph glyph-name="uni001D" horiz-adv-x="0"/><glyph glyph-name="uni001D" horiz-adv-x="0"/><glyph glyph-name="space" horiz-adv-x="409" unicode="&#x20;"/><glyph d="M109 76q0 41 26.5 69.5t67.5 28.5 68.5-28.5 27.5-69.5q0-43-27.5-71t-68.5-28-67.5 28-26.5 71zM150 1360l112 14-14-981h-86z" glyph-name="exclam" horiz-adv-x="409" unicode="&#x21;"/><glyph d="M106 760v606h103v-606h-103zM377 760v606h102v-606h-102z" glyph-name="quotedbl" horiz-adv-x="585" unicode="&#x22;"/><glyph d="M23 348l18 96h278l87 457h-291l16 96h293l68 346h94l-66-346h326l65 346h97l-68-346h287l-19-96h-284l-86-457h297l-19-96h-297l-65-348h-97l66 348h-326l-65-348h-96l65 348h-278zM418 444h323l86 457h-325z" glyph-name="numbersign" horiz-adv-x="1183" unicode="&#x23;"/><glyph d="M129 178l86 55q49-94 164-133l117 596q-72 31-131.5 65t-102.5 77-67.5 99-24.5 132q0 147 102.5 232t274.5 85q23 0 42-1t40-3l43 220h88l-47-238q147-41 237-172l-86-51q-37 51-80 80.5t-90 46.5l-98-506 49-21q82-37 143.5-74.5t101.5-83.5 60.5-102.5 20.5-130.5q0-78-26.5-145.5t-79-118.5-129.5-80-175-29q-31 0-59.5 2.5t-57.5 6.5l-45-234h-88l49 250q-74 23-132 65t-99 111zM279 1079q0-57 16-99t47-74 75-57.5 99-49.5l94 489q-18 2-36.5 3t-36.5 1q-131 0-194.5-61.5t-63.5-151.5zM463 80q45-6 98-6 141 0 220 73.5t79 196.5q0 117-63.5 183.5t-196.5 123.5l-25 11z" glyph-name="dollar" unicode="&#x24;"/><glyph d="M6 0l1327 1366h142l-1328-1366h-141zM66 1077q0 61 22.5 116.5t61 96.5 91 64.5 113.5 23.5 115.5-23.5 93.5-64.5 61.5-96 22.5-117q0-61-22.5-116.5t-61.5-95.5-93-63.5-116-23.5q-61 0-114 23-51 25-90 64.5t-61.5 95-22.5 116.5zM158 1079q0-41 15-78.5t40-68.5q27-29 62.5-47.5t78.5-18.5 79 18.5 61.5 48.5 41 67.5 15.5 78.5q0 43-15.5 82t-41 69-61.5 46-79 16-78.5-16-61.5-46-41-69-15-82zM838 289q0 61 22.5 116.5t61.5 96.5 92 64.5 114 23.5 114.5-23.5 92.5-64.5 61.5-96.5 22.5-116.5-22.5-116.5-61.5-96.5-92-64.5-115-23.5q-61-1-114 22-53 25-92 66t-61.5 96-22.5 117zM930 291q0-41 15-80t42-70q27-29 62.5-47t76.5-18q43 0 79 18.5t62.5 48 42 68.5 15.5 80q0 43-15.5 82t-42 67.5-62.5 45-79 16.5q-84 0-140-61.5t-56-149.5z" glyph-name="percent" horiz-adv-x="1484" unicode="&#x25;"/><glyph d="M82 356q0 158 83 272.5t251 196.5q-39 53-64.5 93t-42 74-23.5 64.5-7 65.5q0 57 21.5 104.5t59 81 89 52 108.5 18.5q53 0 102.5-17.5t86-50 58-79.5 21.5-107q0-117-68.5-193.5t-193.5-137.5l295-410 172 303h103l-215-385 217-301h-119l-154 211q-78-113-172-173.5t-229-60.5q-86 0-155.5 32t-120 85-77 121-26.5 141zM190 354q0-57 19.5-108t56.5-90 88.5-62.5 112.5-23.5q113 0 190.5 59t145.5 164l-334 457q-141-70-210-164.5t-69-231.5zM385 1126q0-25 6-48t21.5-53 39-67 60.5-90q104 49 157.5 107.5t53.5 148.5q0 76-48 122t-120 46q-78 0-124-47t-46-119z" glyph-name="ampersand" horiz-adv-x="1200" unicode="&#x26;"/><glyph d="M106 760v606h103v-606h-103z" glyph-name="quotesingle" horiz-adv-x="315" unicode="&#x27;"/><glyph d="M94 700q0 279 106.5 484t282.5 313l41-72q-150-113-234.5-298t-84.5-427 85-426 234-299l-41-71q-176 111-282.5 314.5t-106.5 481.5z" glyph-name="parenleft" horiz-adv-x="514" unicode="&#x28;"/><glyph d="M-8-25q150 117 234.5 300.5t84.5 424.5q0 242-85 427.5t-234 297.5l41 72q176-109 282.5-313.5t106.5-483.5-106.5-482.5-282.5-313.5z" glyph-name="parenright" horiz-adv-x="514" unicode="&#x29;"/><glyph d="M72 918l272 178-270 184 45 72 252-174v297h84v-297l256 172 47-68-275-184 273-183-43-71-258 172v-311h-84v311l-254-172z" glyph-name="asterisk" horiz-adv-x="829" unicode="&#x2a;"/><glyph d="M88 629v100h412v455h100v-455h410v-100h-410v-455h-100v455h-412z" glyph-name="plus" unicode="&#x2b;"/><glyph d="M25-113q72 39 120 107-23 4-44 27.5t-21 58.5q0 41 27.5 65.5t66.5 24.5q37 0 64.5-26.5t27.5-75.5q0-41-20.5-78t-52-68-70.5-54.5-76-35.5z" glyph-name="comma" horiz-adv-x="348" unicode="&#x2c;"/><glyph d="M92 489v107h434v-107h-434z" glyph-name="hyphen" horiz-adv-x="618" unicode="&#x2d;"/><glyph d="M80 76q0 41 27.5 68.5t66.5 27.5 66.5-27.5 27.5-68.5-27.5-68.5-66.5-27.5-66.5 27.5-27.5 68.5z" glyph-name="period" horiz-adv-x="348" unicode="&#x2e;"/><glyph d="M0 16l858 1528 84-49-854-1534z" glyph-name="slash" horiz-adv-x="942" unicode="&#x2f;"/><glyph d="M74 678q0 127 27.5 253t86 225 147.5 160.5 214 61.5 215-61.5 147.5-161.5 85-225 27.5-254-27.5-255-85-225.5-147.5-161-215-61.5-214 61.5-147.5 161-86 226.5-27.5 256zM188 676q0-109 20.5-216.5t64.5-193.5 112-140 164-54 164.5 54 111.5 140 63.5 193.5 20.5 216.5q0 106-20.5 214.5t-63.5 194.5-111.5 140.5-164.5 54.5-164-54.5-112-140.5-64.5-194.5-20.5-214.5z" glyph-name="zero" unicode="&#x30;"/><glyph d="M166 1098q199 162 391 254h78v-1254h297l-14-98h-687l15 98h276v1114q-66-37-145.5-88t-151.5-110z" glyph-name="one" unicode="&#x31;"/><glyph d="M123 1192q78 86 182.5 136t245.5 50q92 0 166-23.5t127-67.5 81.5-105.5 28.5-137.5q0-66-17-121t-61.5-107-119-105.5-187.5-114.5q-92-49-152.5-100.5t-96-107.5-50-123.5-14.5-149.5v-17h719l-14-98h-816v106q0 94 17.5 175t60.5 152 115 133.5 182 121.5q96 51 157.5 94t96.5 84 48.5 83 13.5 93q0 115-79 175.5t-206 60.5q-111 0-195-37t-172-127z" glyph-name="two" unicode="&#x32;"/><glyph d="M104 115l56 84q76-61 166-94t194-33q172 0 265.5 87t93.5 232q0 154-92.5 231.5t-272.5 77.5q-27 0-54.5-2t-47.5-6l-17 37q39 68 85 138.5t95.5 139 98.5 131 92 113.5h-606l14 101h780v-37q-43-43-98-105.5t-110.5-134-108.5-145.5-94-139h14q92 0 172-28t138.5-79 92-125 33.5-166q0-90-33.5-166.5t-95-133-148.5-88.5-196-32q-133 0-236.5 41t-179.5 101z" glyph-name="three" unicode="&#x33;"/><glyph d="M92 367v36q55 117 130 245t161 255 176 246 176 217l84-55q-166-186-318.5-407.5t-267.5-438.5h484v356l106 15v-371h183l-15-98h-168v-367h-106v367h-625z" glyph-name="four" unicode="&#x34;"/><glyph d="M123 86l49 88q78-59 157-80.5t165-21.5q186 0 279 97t93 257q0 180-113.5 265t-306.5 85q-57 0-113.5-7t-115.5-17v600h711l-15-99h-589v-395q33 4 69.5 8t71.5 4q113 0 207-28.5t161.5-85 104.5-139 37-189.5q0-98-33-181t-94.5-143.5-150.5-95.5-203-35q-111 0-204 30t-167 83z" glyph-name="five" unicode="&#x35;"/><glyph d="M106 510q0 176 55.5 322.5t154 257 231.5 182 287 98.5l24-94q-233-45-390-175t-216-337q55 39 132 65.5t169 26.5q98 0 179-32.5t138.5-91 89-138.5 31.5-176-31.5-177-89-140.5-137.5-93.5-176-34q-111 0-194.5 41t-140 113-86.5 170-30 213zM219 514q0-92 20.5-174t62.5-142.5 106.5-96 154.5-35.5q72 0 131.5 26.5t101.5 73.5 65.5 111.5 23.5 138.5q0 158-95.5 251t-250.5 93q-90 0-167-26.5t-143-76.5q-4-35-7-69.5t-3-73.5z" glyph-name="six" unicode="&#x36;"/><glyph d="M111 1251l14 101h864v-52q-82-293-216-620.5t-331-679.5h-120q193 344 325.5 655.5t218.5 595.5h-755z" glyph-name="seven" unicode="&#x37;"/><glyph d="M98 356q0 135 78 224.5t197 124.5q-111 33-181.5 109.5t-70.5 205.5q0 80 29.5 145.5t86 113.5 135.5 73.5 177 25.5q94 0 173-25.5t135-71.5 87-111.5 31-147.5q0-129-73-207t-179-108q57-16 107.5-47t88-75 59-101.5 21.5-125.5q0-94-33.5-165.5t-94-120.5-142.5-74-180-25q-96 0-178 25t-142.5 73-95.5 119.5-35 165.5zM205 356q0-70 25.5-124t71.5-91 109.5-56 137.5-19q72 0 134 18t109.5 55 74 92.5 26.5 126.5q0 66-25.5 122.5t-71.5 96-109.5 62.5-139.5 23q-78 0-141.5-24t-107.5-66-68.5-97-24.5-119zM227 1022q0-123 87-196.5t233-73.5q68 0 127 18t103 52 68.5 84 24.5 116-25.5 115-69.5 82.5-102.5 51-123.5 17.5q-68 0-127.5-17.5t-102.5-51-67.5-84-24.5-113.5z" glyph-name="eight" unicode="&#x38;"/><glyph d="M106 934q0 94 32 176t89.5 141.5 137 93 176.5 33.5q111 0 194.5-41t140-112.5 86-170 29.5-212.5q0-176-55-323.5t-153.5-258-231.5-181.5-287-97l-24 94q233 45 389.5 175t216.5 337q-55-39-132-65.5t-169-26.5q-98 0-179 32.5t-138.5 91-89.5 138.5-32 176zM213 936q0-158 95-251t251-93q90 0 167 26.5t142 75.5q4 35 7.5 70t3.5 74q0 92-20.5 174t-62.5 142-107.5 96-153.5 36q-72 0-131.5-26.5t-101.5-73.5-65.5-111.5-23.5-138.5z" glyph-name="nine" unicode="&#x39;"/><glyph d="M80 76q0 41 27.5 68.5t66.5 27.5 66.5-27.5 27.5-68.5-27.5-68.5-66.5-27.5-66.5 27.5-27.5 68.5zM80 889q0 41 27.5 68.5t66.5 27.5 66.5-27.5 27.5-68.5-27.5-68.5-66.5-27.5-66.5 27.5-27.5 68.5z" glyph-name="colon" horiz-adv-x="348" unicode="&#x3a;"/><glyph d="M25-113q72 39 120 107-23 4-44 27.5t-21 58.5q0 41 27.5 65.5t66.5 24.5q37 0 64.5-26.5t27.5-75.5q0-41-20.5-78t-52-68-70.5-54.5-76-35.5zM80 889q0 41 27.5 68.5t66.5 27.5 66.5-27.5 27.5-68.5-27.5-68.5-66.5-27.5-66.5 27.5-27.5 68.5z" glyph-name="semicolon" horiz-adv-x="348" unicode="&#x3b;"/><glyph d="M121 637v90l805 317 39-98-678-262 692-272-39-103z" glyph-name="less" unicode="&#x3c;"/><glyph d="M88 403v101h924v-101h-924zM88 774v98h924v-98h-924z" glyph-name="equal" unicode="&#x3d;"/><glyph d="M121 412l692 272-680 262 41 98 805-317v-90l-821-328z" glyph-name="greater" unicode="&#x3e;"/><glyph d="M6 1165q23 37 56.5 75t77.5 68.5 101.5 50 125.5 19.5q160 0 252-77.5t92-231.5q0-61-13.5-110.5t-38-93.5-58.5-87-75-90q-70-80-101.5-130t-33.5-112l-2-53h-86q-2 16-3 32.5t-1 31.5q0 45 9 80.5t27.5 69.5 44.5 66 58 66q35 39 66 76t52.5 76 33.5 82 12 94q0 104-62.5 162.5t-174.5 58.5q-49 0-92.5-15.5t-78-41-63.5-57-49-62.5zM250 76q0 41 26.5 69.5t67.5 28.5 68.5-28.5 27.5-69.5q0-43-27.5-71t-68.5-28-67.5 28-26.5 71z" glyph-name="question" horiz-adv-x="735" unicode="&#x3f;"/><glyph d="M94 537q0 188 63.5 344.5t179.5 269.5 277.5 175.5 356.5 62.5q180 0 330.5-54.5t260-156 170-248 60.5-328.5q0-121-26.5-214t-73.5-156.5-113-96.5-143-33q-162 0-234 109-53-57-124.5-84t-151.5-27-152 29-126 84-85 135-31 182q0 113 36 199t96.5 143.5 139.5 86 167 28.5q72 0 151.5-19.5t137.5-56.5v-540q0-96 51-136t127-40q53 0 99 23.5t80 71.5 53.5 122.5 19.5 179.5q0 172-52.5 304t-145.5 221-225 134-292 45q-178 0-321.5-54t-245-153.5-156.5-239.5-55-312q0-182 57-320.5t157.5-232 233.5-140.5 285-47q147 0 271 41t210 105l51-78q-98-72-235-116t-303-44q-170 0-320.5 54.5t-263.5 160-179.5 260-66.5 357.5zM635 535q0-86 24.5-149.5t65.5-106.5 94-64.5 113-21.5q72 0 130 23.5t105 70.5q-8 33-8 78v489q-41 18-91 29.5t-97 11.5q-63 0-124-20.5t-108-63.5-75.5-111.5-28.5-164.5z" glyph-name="at" horiz-adv-x="1890" unicode="&#x40;"/><glyph d="M6 0q131 403 265.5 735t277.5 631h37q72-152 139.5-308.5t134-324.5 131-349 131.5-384h-114q-39 119-77 227.5t-75 212.5h-588q-37-104-74.5-212.5t-74.5-227.5h-113zM305 543h514q-70 188-134.5 347t-121.5 292q-57-133-122.5-292t-135.5-347z" glyph-name="A" horiz-adv-x="1128" unicode="&#x41;"/><glyph d="M166 0v1366h373q193 0 294-86t101-260q0-123-66.5-196.5t-195.5-98.5q147-10 239.5-95t92.5-251q0-88-29-158.5t-80-120-123-75-158-25.5h-448zM279 100h327q135 0 208 76t73 207q0 154-95.5 219.5t-261.5 65.5h-251v-568zM279 770h245q145 0 220 69.5t75 186.5q0 125-71.5 182.5t-206.5 57.5h-262v-496z" glyph-name="B" horiz-adv-x="1064" unicode="&#x42;"/><glyph d="M100 678q0 174 42 307t115 223 169 137.5 207 47.5q168 0 276.5-77t167.5-200l-94-51q-23 43-53.5 84t-73.5 72.5-96 50-119 18.5q-90 0-168-40t-135-117.5-89-192.5-32-264q0-133 32-243.5t89-189.5 139-123 180-44q66 0 118 17.5t93 47 74 69.5 57 85l88-53q-31-57-70.5-106.5t-92-85.5-119-56.5-150.5-20.5q-129 0-232.5 49.5t-175 141.5-109.5 222-38 292z" glyph-name="C" horiz-adv-x="1136" unicode="&#x43;"/><glyph d="M166 0v1366h336q145 0 266-42t207-125 133-207 47-290q0-178-47-310t-133-219-206-130-267-43h-336zM276 100h205q123 0 225.5 34t176 106.5 114.5 184.5 41 269q0 145-38.5 252t-110.5 177.5-173.5 105.5-226.5 35h-213v-1164z" glyph-name="D" horiz-adv-x="1232" unicode="&#x44;"/><glyph d="M166 0v1366h774l-14-100h-647v-490h481l-15-102h-469v-574h705l-14-100h-801z" glyph-name="E" horiz-adv-x="1060" unicode="&#x45;"/><glyph d="M166 0v1366h760l-15-100h-632v-512h479l-15-101h-467v-653h-110z" glyph-name="F" horiz-adv-x="983" unicode="&#x46;"/><glyph d="M100 678q0 172 44 305t119 224 175.5 138.5 214.5 47.5q92 0 162-20.5t123-55.5 90-82 66-100l-93-56q-23 43-54.5 81t-73.5 67.5-97 47-123 17.5q-86 0-164.5-39t-139-115.5-96.5-192.5-36-269q0-137 34-249t95.5-191.5 147.5-122.5 188-43q92 0 176 18t131 35v424h-264l14 102h361v-600q-70-29-180.5-52.5t-239.5-23.5-235.5 46.5-183.5 135.5-119 220-42 303z" glyph-name="G" horiz-adv-x="1202" unicode="&#x47;"/><glyph d="M166 0v1366l113 12v-620h743v608l113 12v-1378h-113v655h-743v-655h-113z" glyph-name="H" horiz-adv-x="1300" unicode="&#x48;"/><glyph d="M166 0v1366l113 12v-1378h-113z" glyph-name="I" horiz-adv-x="444" unicode="&#x49;"/><glyph d="M-90-164q53 12 100 30.5t82 49.5 54.5 75 19.5 103v1272l113 12v-1286q0-84-28-145.5t-75-103.5-110.5-66.5-135.5-36.5z" glyph-name="J" horiz-adv-x="444" unicode="&#x4a;"/><glyph d="M166 0v1366l113 12v-735l624 721 141 12-516-594q156-160 300.5-356.5t267.5-425.5h-127q-225 414-512 700l-178-202v-498h-113z" glyph-name="K" horiz-adv-x="1126" unicode="&#x4b;"/><glyph d="M166 0v1366l113 12v-1278h667l-14-100h-766z" glyph-name="L" horiz-adv-x="997" unicode="&#x4c;"/><glyph d="M125 0q10 330 31.5 683t52.5 683h53l490-1165 503 1165h52q16-164 29.5-341t23.5-354 18-348 13-323h-105q-4 113-10 244t-13.5 268-15.5 276.5-16 272.5l-457-1061h-45l-444 1051q-8-113-16.5-243t-15.5-266-13.5-274.5-10.5-267.5h-104z" glyph-name="M" horiz-adv-x="1517" unicode="&#x4d;"/><glyph d="M166 0v1366h43q129-141 254-293.5t234.5-296 199.5-269.5 150-214v1073l112 12v-1378h-41q-215 332-432 620.5t-412 512.5v-1133h-108z" glyph-name="N" horiz-adv-x="1325" unicode="&#x4e;"/><glyph d="M100 684q0 137 36 265t106.5 226.5 175 158 244.5 59.5q141 0 245.5-60.5t173-160 102.5-227.5 34-261-34-261-102.5-227.5-173-161-245.5-61.5q-144 1-250 60-104 61-174 160.5t-104 227.5-34 263zM217 684q0-111 27-220.5t82-197.5q55-86 139-139t197-53 194.5 54 136 140 81 195.5 26.5 220.5-25.5 219.5-80 194.5-137.5 140-195 54q-117 0-201-53t-138.5-140-80-195.5-25.5-219.5z" glyph-name="O" horiz-adv-x="1316" unicode="&#x4f;"/><glyph d="M166 0v1366h428q205 0 316.5-101.5t111.5-297.5q0-98-32-172t-88-123-135-74-171-25h-317v-573h-113zM279 676h317q143 0 226 76.5t83 212.5q0 141-76.5 221t-234.5 80h-315v-590z" glyph-name="P" horiz-adv-x="1060" unicode="&#x50;"/><glyph d="M100 684q0 137 36 265t106.5 226.5 175 158 244.5 59.5q141 0 245.5-60.5t173-160 102.5-227.5 34-261q0-158-46.5-304.5t-144.5-250.5q41-55 78-116.5t74-135.5l-93-45q-35 68-69.5 124t-69.5 103q-59-41-128.5-63.5t-155.5-22.5q-141 1-250 60-78 45-136.5 114.5t-97.5 154.5-58.5 182.5-19.5 199.5zM217 684q0-111 27-220.5t82-197.5q55-86 139-139t197-53q66 0 119 18.5t100 50.5q-41 47-87 92.5t-102 92.5l64 78q59-49 107-96.5t91-94.5q74 90 110 215t36 254q0 111-25.5 219.5t-80 194.5-137.5 140-195 54q-117 0-201-53t-138.5-140-80-195.5-25.5-219.5z" glyph-name="Q" horiz-adv-x="1316" unicode="&#x51;"/><glyph d="M166 0v1366h430q209 0 315.5-96t106.5-275q0-162-91-259t-278-113q199-244 377-623h-125q-74 160-170 320.5t-213 297.5h-239v-618h-113zM279 719h311q154 0 233.5 67.5t79.5 208.5q0 131-77.5 201t-231.5 70h-315v-547z" glyph-name="R" unicode="&#x52;"/><glyph d="M63 201l95 65q59-92 153.5-142t206.5-50q137 0 227.5 65.5t90.5 204.5q0 70-28 122t-77 92-115.5 70.5-142.5 57.5q-63 23-128.5 52.5t-119 73.5-87.5 103.5-34 141.5 34 145.5 90.5 105.5 133 63.5 162.5 21.5q156 0 258.5-58.5t167.5-150.5l-88-68q-55 76-139 126t-203 50q-61 0-115.5-14t-94.5-43-63.5-72-23.5-100q0-59 29-101t74-75 102-57.5 113-45.5q80-31 153.5-66.5t131-84.5 92-118 34.5-165q0-190-117.5-283.5t-320.5-93.5q-147 0-263 58.5t-188 169.5z" glyph-name="S" horiz-adv-x="1030" unicode="&#x53;"/><glyph d="M51 1266l15 100h958l-14-100h-416v-1266h-113v1266h-430z" glyph-name="T" horiz-adv-x="1075" unicode="&#x54;"/><glyph d="M156 455v911l112 12v-893q0-188 97.5-298.5t279.5-110.5q184 0 281.5 107.5t97.5 301.5v881l113 12v-923q0-117-39-207t-105.5-150.5-157-92.5-192.5-32q-104 0-193.5 32t-155 92.5-102 150.5-36.5 207z" glyph-name="U" horiz-adv-x="1292" unicode="&#x55;"/><glyph d="M31 1360l114 14q37-141 90.5-306t112-326.5 114.5-305 99-243.5q45 104 101.5 239t114 287.5 112.5 315.5 102 325l115 14q-47-168-109.5-352t-132-366.5-143.5-351.5-143-304h-39q-66 137-136.5 307t-137 349.5-127 360.5-107.5 343z" glyph-name="V" horiz-adv-x="1136" unicode="&#x56;"/><glyph d="M41 1360l111 14q27-135 58.5-277.5t68-285.5 74.5-282.5 77-270.5l336 1104h51l332-1116q88 289 159.5 567.5t125.5 546.5l114 14q-35-176-74.5-347t-88-341-102.5-341-118-345h-45l-332 1108-335-1108h-45q-117 346-209.5 685t-157.5 675z" glyph-name="W" horiz-adv-x="1589" unicode="&#x57;"/><glyph d="M12 0l424 696-383 664 121 16 330-585 319 569 133 16-389-667 426-709h-135l-356 614-365-614h-125z" glyph-name="X" horiz-adv-x="1005" unicode="&#x58;"/><glyph d="M6 1360l117 14q39-80 82-159.5t91-163.5 105.5-175.5 126.5-191.5q68 102 123.5 190.5t103.5 170 89 158.5 80 157l129 16q-49-98-99.5-191t-106.5-188.5-122-197-145-217.5v-582h-113v590q-78 115-141.5 214t-118.5 191-103.5 180.5-97.5 184.5z" glyph-name="Y" horiz-adv-x="1058" unicode="&#x59;"/><glyph d="M74 0v41q63 137 150 292.5t187.5 316.5 207 318.5 208.5 297.5h-721l15 100h880v-35q-109-145-220-305t-214.5-320.5-193.5-315-156-290.5h815l-14-100h-944z" glyph-name="Z" horiz-adv-x="1081" unicode="&#x5a;"/><glyph d="M147-293v1800h261v-90h-156v-1618h156v-92h-261z" glyph-name="bracketleft" horiz-adv-x="409" unicode="&#x5b;"/><glyph d="M0 1495l84 49 858-1528-88-55z" glyph-name="backslash" horiz-adv-x="942" unicode="&#x5c;"/><glyph d="M4-201h156v1618h-156v90h258v-1800h-258v92z" glyph-name="bracketright" horiz-adv-x="409" unicode="&#x5d;"/><glyph d="M131 649l334 721h94l338-706-94-41-293 616-285-629z" glyph-name="asciicircum" horiz-adv-x="1028" unicode="&#x5e;"/><glyph d="M0-340h1028v-88h-1028v88z" glyph-name="underscore" horiz-adv-x="1028" unicode="&#x5f;"/><glyph d="M92 1380l76 82 338-286-49-56z" glyph-name="grave" horiz-adv-x="598" unicode="&#x60;"/><glyph d="M80 276q0 106 54 177t140 112 195 57.5 219 18.5v43q0 113-57.5 170t-163.5 57q-78 0-138.5-33.5t-99.5-78.5l-73 57q51 63 124.5 104t190.5 41q324 0 324-327v-674h-97l-8 84q-49-49-117.5-78t-166.5-29q-70 0-129.5 19.5t-103.5 57.5-68.5 94.5-24.5 127.5zM188 274q0-53 19.5-92t52.5-64.5 75-37.5 85-12q82 0 151.5 34.5t116.5 81.5v365q-84-2-173-12.5t-161.5-40-119-83-46.5-139.5z" glyph-name="a" horiz-adv-x="929" unicode="&#x61;"/><glyph d="M141 41v1323l107 14v-448q53 31 116.5 51t143.5 20q90 0 170-31.5t139.5-95 94-158.5 34.5-220q0-119-37-215.5t-101.5-164-150.5-103.5-186-36q-104 0-188 19.5t-142 44.5zM248 106q47-18 103.5-29t103.5-11q86 0 157.5 30.5t121.5 88 78 136 28 175.5q0 98-27 175t-75 130-112.5 81.5-138.5 28.5q-66 0-126-21.5t-113-60.5v-723z" glyph-name="b" horiz-adv-x="1040" unicode="&#x62;"/><glyph d="M96 487q0 129 35 225.5t93.5 161 135 96 162.5 31.5q76 0 132.5-19t96.5-50 67.5-68 43.5-73l-84-50q-37 74-97 122t-159 48q-72 0-130-31.5t-100-88-65.5-133-23.5-169.5q0-96 23.5-172.5t67.5-132 105.5-85 135.5-29.5q172 0 266 161l80-51q-51-92-139.5-147.5t-213.5-55.5q-92 0-170.5 34t-137 99.5-91.5 160-33 216.5z" glyph-name="c" horiz-adv-x="931" unicode="&#x63;"/><glyph d="M94 494q0 111 33 204t92.5 160.5 142 105 185.5 37.5q92 0 150.5-19t97.5-44v426l106 14v-1378h-94l-12 86q-47-51-115-80t-160-29q-98 0-177 37t-134 104.5-85 163-30 212.5zM201 489q0-190 87-305.5t244-115.5q84 0 151 34.5t112 92.5v636q-35 33-99.5 56.5t-136.5 23.5q-82 0-147.5-31.5t-112.5-88-72.5-133-25.5-169.5z" glyph-name="d" horiz-adv-x="1040" unicode="&#x64;"/><glyph d="M96 489q0 119 31 214.5t86 161 132 101 169 35.5q98 0 173-35.5t126-100 78-157 31-202.5h-723q0-207 88-322.5t256-115.5q104 0 171.5 50t110.5 126l78-49q-25-43-56.5-82t-75.5-70-101.5-48.5-130.5-17.5q-209 0-326 134.5t-117 377.5zM207 596h594q-4 82-31 142.5t-66.5 98-89 56-100.5 18.5q-117 0-201-74.5t-106-240.5z" glyph-name="e" horiz-adv-x="995" unicode="&#x65;"/><glyph d="M35 905v70h145v115q0 156 69.5 229.5t188.5 73.5q72 0 117-14.5t76-30.5l-37-88q-29 16-65.5 28t-86.5 12q-72 0-113.5-46t-41.5-173v-106h233l-14-90h-219v-885h-107v885z" glyph-name="f" horiz-adv-x="538" unicode="&#x66;"/><glyph d="M96 481q0 119 36 215.5t100.5 164 154.5 104 199 36.5q90 0 173-20t142-55v-891q0-217-100.5-330t-278.5-113q-133 0-222 54.5t-138 126.5l74 59q47-66 116.5-107.5t167.5-41.5q131 0 203 82.5t72 263.5v24q-47-31-113-53.5t-147-22.5q-94 0-175 35t-139.5 99.5-91.5 159-33 210.5zM203 481q0-100 28.5-177t76.5-129 111.5-79.5 133.5-27.5q76 0 140.5 27.5t101.5 60.5v712q-43 23-96.5 33t-108.5 10q-78 0-147.5-27.5t-123-81.5-85-135-31.5-186z" glyph-name="g" horiz-adv-x="1042" unicode="&#x67;"/><glyph d="M141 0v1364l107 14v-487q59 47 136 78.5t181 31.5q190 0 276.5-96t86.5-282v-623h-109v621q0 154-68.5 221t-201.5 67q-90 0-165-35.5t-136-82.5v-791h-107z" glyph-name="h" horiz-adv-x="1062" unicode="&#x68;"/><glyph d="M111 1276q0 41 23.5 65.5t62.5 24.5 62.5-24.5 23.5-65.5-23.5-65.5-62.5-24.5-62.5 24.5-23.5 65.5zM141 0v969l107 14v-983h-107z" glyph-name="i" horiz-adv-x="391" unicode="&#x69;"/><glyph d="M-18-322q88 55 123.5 129t35.5 187v975l107 14v-989q0-152-53.5-243t-159.5-152zM111 1276q0 41 23.5 65.5t62.5 24.5 62.5-24.5 23.5-65.5-23.5-65.5-62.5-24.5-62.5 24.5-23.5 65.5z" glyph-name="j" horiz-adv-x="391" unicode="&#x6a;"/><glyph d="M141 0v1364l107 14v-893l461 486 141 14-377-393q115-117 228.5-272.5t211.5-319.5h-125q-82 141-179 272t-208 244l-153-160v-356h-107z" glyph-name="k" horiz-adv-x="917" unicode="&#x6b;"/><glyph d="M141 182v1182l107 14v-1196q0-57 16.5-80.5t57.5-23.5 88 26l32-77q-61-39-133-39-92 0-130 47t-38 147z" glyph-name="l" horiz-adv-x="458" unicode="&#x6c;"/><glyph d="M141 0v969l99 14 8-98q47 41 125 78.5t180 37.5q92 0 156.5-29.5t105.5-86.5q55 47 136 81.5t192 34.5q180 0 265-99t85-284v-618h-109v627q0 139-66.5 209.5t-187.5 70.5q-88 0-157.5-32.5t-118.5-73.5q12-31 20.5-75t8.5-97v-629h-109v637q0 57-13 106.5t-42 86-75 57-109 20.5q-84 0-159-41t-128-84v-782h-107z" glyph-name="m" horiz-adv-x="1626" unicode="&#x6d;"/><glyph d="M141 0v969l99 14 8-98q61 47 138 81.5t187 34.5q358 0 359-389v-612h-107v623q0 135-65.5 210.5t-200.5 75.5q-98 0-175-39t-136-88v-782h-107z" glyph-name="n" horiz-adv-x="1067" unicode="&#x6e;"/><glyph d="M96 496q0 98 28 189t82 162 135 112.5 189 41.5q106 0 188.5-43t137.5-113.5 83-162.5 28-190q0-100-28-193.5t-83-164.5-137-114-189-43q-106 0-188 43-80 45-135 117t-83 166-28 193zM203 496q0-80 20.5-157t61.5-138q41-59 102.5-96t142.5-37q84 0 145.5 37.5t102.5 98 61.5 136.5 20.5 154-20.5 152.5-61.5 134-102.5 95-145.5 35.5-145-35.5-102-94-60.5-133.5-19.5-152z" glyph-name="o" horiz-adv-x="1062" unicode="&#x6f;"/><glyph d="M141-387v1356l97 14 10-90q49 43 117.5 75.5t166.5 32.5q102 0 180.5-36.5t129.5-103 76.5-159 25.5-204.5q0-117-32.5-213.5t-94-165-147.5-105.5-191-37q-78 0-134 17.5t-97 42.5v-424h-107zM248 139q39-29 94-49t127-20q82 0 150.5 29.5t116.5 84 75 133 27 177.5q0 86-18.5 161.5t-58.5 132-101.5 90-149.5 33.5q-80 0-145.5-35.5t-116.5-84.5v-652z" glyph-name="p" horiz-adv-x="1038" unicode="&#x70;"/><glyph d="M96 481q0 119 36 215.5t100.5 164 153.5 104 198 36.5q90 0 174-20t143-55v-1313h-106v442q-45-33-112-55.5t-151-22.5q-94 0-173.5 35t-138 99.5-91.5 159-33 210.5zM203 481q0-100 28.5-177t75.5-129 110.5-79.5 133.5-27.5q76 0 141.5 27.5t102.5 60.5v712q-43 23-97.5 33t-109.5 10q-78 0-147.5-27.5t-123-81.5-84-135-30.5-186z" glyph-name="q" horiz-adv-x="1042" unicode="&#x71;"/><glyph d="M141 0v969l95 14 10-106q43 51 105.5 86.5t135.5 35.5q41 0 73-4t52-10l-18-100q-45 16-115 16-66 0-128-41t-103-90v-770h-107z" glyph-name="r" horiz-adv-x="614" unicode="&#x72;"/><glyph d="M72 150l84 53q39-61 99-98t153-37q104 0 164.5 45t60.5 135q0 94-61.5 146t-198.5 100q-141 47-200.5 106t-59.5 162q0 106 79.5 172.5t221.5 66.5q115 0 188.5-41.5t116.5-109.5l-80-57q-35 51-91 85.5t-134 34.5q-98 0-146.5-42t-48.5-105q0-37 11.5-63.5t39-49 75.5-44 120-46.5q137-47 203.5-116.5t66.5-192.5q0-135-93-206t-234-71q-135 0-214 50.5t-122 122.5z" glyph-name="s" horiz-adv-x="794" unicode="&#x73;"/><glyph d="M35 905v70h168v264l106 14v-278h262l-14-90h-250v-678q0-78 32-108.5t87-30.5q39 0 67.5 11t57.5 34l45-78q-41-29-81-43.5t-112-14.5q-92 0-146 54.5t-54 158.5v695z" glyph-name="t" horiz-adv-x="636" unicode="&#x74;"/><glyph d="M133 346v623l109 14v-637q0-147 72.5-211.5t195.5-64.5q92 0 170 37.5t131 97.5v764l109 14v-983h-97l-8 96q-55-47-129-83t-190-36q-172 0-267.5 89.5t-95.5 279.5z" glyph-name="u" horiz-adv-x="1060" unicode="&#x75;"/><glyph d="M18 969l107 14q59-205 144-414t184-409q104 217 186 425t137 384l113 14q-78-242-180.5-487.5t-235.5-495.5h-45q-129 246-231.5 489.5t-178.5 479.5z" glyph-name="v" horiz-adv-x="907" unicode="&#x76;"/><glyph d="M33 967l102 16q53-211 115.5-399.5t138.5-378.5l277 770h39l278-776q76 203 140.5 395t111.5 373l111 16q-35-117-72-234.5t-78-238.5-89-247-106-263h-45l-272 748-270-748h-45q-111 252-192 491.5t-144 475.5z" glyph-name="w" horiz-adv-x="1378" unicode="&#x77;"/><glyph d="M0 0l334 498-314 471 111 14 262-399 252 385 121 14-315-485 327-498h-114l-271 414-274-414h-119z" glyph-name="x" horiz-adv-x="780" unicode="&#x78;"/><glyph d="M18-297q49 6 97.5 16.5t96.5 40 97 88 103 160.5q-129 262-226.5 498.5t-158.5 462.5l106 14q53-205 136-418t194-444q104 236 178 440.5t127 407.5l109 14q-33-125-68-238.5t-74-223-84-215-96-216.5q-72-154-133.5-247t-122.5-144-128-67.5-146-18.5z" glyph-name="y" horiz-adv-x="917" unicode="&#x79;"/><glyph d="M80 0v37q117 209 268.5 428t310.5 420h-559l15 90h706v-37q-82-100-166-210t-162.5-220.5-148.5-217-125-200.5h619l-13-90h-745z" glyph-name="z" horiz-adv-x="909" unicode="&#x7a;"/><glyph d="M47 645v76q88 14 130 60t42 163v307q0 133 62.5 187.5t167.5 58.5l8-78q-92-4-118-52t-26-134v-289q0-113-34.5-174t-135.5-88q100-27 135-86t35-172v-289q0-84 26-133t118-55l-8-76q-104 2-167 57.5t-63 188.5v307q0 115-42 162t-130 59z" glyph-name="braceleft" horiz-adv-x="479" unicode="&#x7b;"/><glyph d="M158-152v1663h102v-1663h-102z" glyph-name="bar" horiz-adv-x="417" unicode="&#x7c;"/><glyph d="M23-53q88 6 114.5 55t26.5 133v289q0 55 8 98t27.5 74 52.5 52.5 84 33.5q-102 27-137 88t-35 174v289q0 84-26.5 133t-114.5 53l8 78q104-4 166.5-58.5t62.5-187.5v-307q0-59 10.5-98t32-64.5 53-40 76.5-20.5v-76q-90-12-131-59t-41-162v-307q0-133-62.5-188.5t-166.5-57.5z" glyph-name="braceright" horiz-adv-x="479" unicode="&#x7d;"/><glyph d="M10 1075q16 123 87 187.5t175 64.5q86 0 142.5-36t105.5-74q31-23 59.5-39.5t63.5-16.5q72 0 102.5 48t40.5 120h93q-4-68-26-116t-54.5-80.5-73.5-48-84-15.5q-66 0-115 29.5t-94 64.5q-39 29-78 50.5t-86 21.5q-66 0-111.5-41t-56.5-119h-90z" glyph-name="asciitilde" horiz-adv-x="890" unicode="&#x7e;"/><glyph glyph-name="uni00A0" horiz-adv-x="409" unicode="&#xa0;"/><glyph d="M111 903q0 43 27.5 70.5t68.5 27.5 67.5-27.5 26.5-70.5q0-41-26.5-69.5t-67.5-28.5-68.5 28.5-27.5 69.5zM147-395l15 981h86l12-967z" glyph-name="exclamdown" horiz-adv-x="409" unicode="&#xa1;"/><glyph d="M236 690q0 86 27.5 155.5t76.5 121 114.5 79 141.5 27.5h18l58 293h86l-60-303q59-10 98.5-33.5t67.5-48.5l-55-72q-29 25-57.5 41.5t-71.5 24.5l-115-592q10-2 21.5-2h23.5q70 0 115 18.5t80 51.5l49-76q-41-37-98.5-62.5t-147.5-25.5q-16 0-30.5 1t-30.5 3l-55-291h-86l59 309q-113 41-171 143.5t-58 237.5zM344 690q0-98 37-172t104-108l111 571h-8q-111 0-177.5-78t-66.5-213z" glyph-name="cent" unicode="&#xa2;"/><glyph d="M117 528l14 97h133v346q0 203 94.5 305t266.5 102q68 0 120-16t92-44 70.5-68 53.5-85l-105-49q-29 63-84 111.5t-149 48.5q-125 0-188.5-77t-63.5-236v-338h463l-15-97h-448v-430h610l-14-98h-701v528h-149z" glyph-name="sterling" unicode="&#xa3;"/><glyph d="M35 137l319 336q-98 137-98 285 0 139 90 276l-311 322 80 71 301-319q137 104 278 104 72 0 136.5-22.5t130.5-73.5l292 311 80-71-299-309q51-72 75-141.5t24-147.5-26-152-81-145l307-326-69-65-308 323q-68-47-131-68.5t-131-21.5q-139 0-270 98l-320-331zM354 756q0-74 27-138.5t72-113.5q47-47 108.5-75t132.5-28q70 0 132.5 28t108.5 76 72.5 112.5 26.5 138.5-26.5 138-72.5 113.5-108.5 77-132.5 27.5q-72 0-133-27.5t-107-77-73-114-27-137.5z" glyph-name="currency" horiz-adv-x="1368" unicode="&#xa4;"/><glyph d="M66 1346l110 12q78-160 165-316.5t200-334.5q61 92 111 173t93 157.5 82 149.5 78 150l129 19q-29-55-57.5-110.5t-63-116-77.5-132-101-159.5h234l-15-97h-280l-82-123v-77h377l-15-97h-362v-444h-111v444h-368l14 97h354v77l-80 123h-288l14 97h215q-53 88-94 157.5t-73 130-58.5 113.5-50.5 107z" glyph-name="yen" unicode="&#xa5;"/><glyph d="M158-152v564h102v-564h-102zM158 946v565h102v-565h-102z" glyph-name="brokenbar" horiz-adv-x="417" unicode="&#xa6;"/><glyph d="M129-178l59 72q41-47 95.5-76t119.5-29q96 0 150.5 42t54.5 120q0 39-11 71.5t-41 67.5-80 77-130 97q-111 80-163 151.5t-52 170.5q0 117 71.5 183.5t182.5 96.5q-37 33-70.5 66t-60.5 68.5-42 77.5-15 93q0 100 74.5 161t197.5 61q92 0 153.5-33t96.5-74l-60-63q-33 37-80 61.5t-114 24.5q-80 0-125-36t-45-104q0-37 15.5-70.5t44-68.5 69.5-72.5 94-83.5q70-61 116-107t71.5-86 36-81 10.5-90q0-106-65.5-170t-158.5-96q49-39 84-72t56.5-65.5 32-68.5 10.5-79q0-57-23.5-104.5t-65.5-80-96.5-51-115.5-18.5q-96 0-162 32t-119 85zM229 588q0-45 16.5-82t47.5-70.5 72-68.5q43-33 94-72 86 27 140 77t54 134q0 41-10 75.5t-34.5 70.5-63.5 74-94 83q-94-23-158-74t-64-147z" glyph-name="section" horiz-adv-x="862" unicode="&#xa7;"/><glyph d="M0 1276q0 41 23.5 65.5t62.5 24.5 62.5-24.5 23.5-65.5-23.5-65.5-62.5-24.5-62.5 24.5-23.5 65.5zM311 1276q0 41 23.5 65.5t62.5 24.5 62.5-24.5 23.5-65.5-23.5-65.5-62.5-24.5-62.5 24.5-23.5 65.5z" glyph-name="dieresis" horiz-adv-x="483" unicode="&#xa8;"/><glyph d="M84 608q0 154 48 292t140.5 242.5 224.5 166 298 61.5 298-61.5 224-166 140-242.5 48-292-48-293-140-244.5-224-167-298-61.5q-166 1-299 62-131 61-223.5 166.5t-140.5 245-48 292.5zM178 608q0-131 42-254t120-217q80-94 194.5-151.5t260.5-57.5q145 0 259.5 57.5t193.5 151.5 121 217 42 254-42 254-121 217.5-193.5 150.5-259.5 56-260-56-194-150.5-121-217.5-42-254zM446 604q0 119 29 207t79 145.5 115.5 85 139.5 27.5q104 0 171-48t101-110l-73-43q-33 53-77 86t-126 33q-117 0-190.5-98t-73.5-285q0-180 76.5-276.5t191.5-96.5q72 0 122 34t85 89l69-51q-45-70-109.5-111.5t-168.5-41.5q-74 0-139.5 26.5t-114.5 81.5-78 141-29 205z" glyph-name="copyright" horiz-adv-x="1589" unicode="&#xa9;"/><glyph d="M59 967q0 74 36 126t96.5 84.5 137.5 48 160 15.5v37q0 76-44 112.5t-109 36.5q-104 0-170-81l-64 45q35 49 94.5 82.5t145.5 33.5q117 0 179.5-62.5t62.5-191.5v-489h-86l-4 59q-29-27-79-52.5t-116-25.5q-47 0-91 14.5t-77 42-52.5 68.5-19.5 97zM154 967q0-72 44-106t107-34q59 0 105.5 25t78.5 59v250q-63 0-123.5-10t-107.5-33.5-75.5-60.5-28.5-90z" glyph-name="ordfeminine" horiz-adv-x="653" unicode="&#xaa;"/><glyph d="M61 514l365 408 72-62-299-340 331-336-69-63zM428 514l369 399 69-61-295-332 320-325-66-64z" glyph-name="guillemotleft" horiz-adv-x="950" unicode="&#xab;"/><glyph d="M88 750v100h922v-619h-103v519h-819z" glyph-name="logicalnot" unicode="&#xac;"/><glyph d="M92 489v107h434v-107h-434z" glyph-name="uni00AD" horiz-adv-x="618" unicode="&#xad;"/><glyph d="M84 604q0 154 48 293t140.5 244.5 224.5 167 298 61.5 298-61.5 224-166 140-242.5 48-292-48-293-140-244.5-224-167-298-61.5-298 61.5-224.5 166-140.5 243-48 291.5zM178 604q0-133 42-255t121-216 194-150.5 260-56.5 259.5 57.5 193.5 152.5 121 218 42 254-42 254-121 217.5-193.5 150.5-259.5 56-260-57.5-194-152.5-121-218-42-254zM541 172v887h276q135 0 208-63.5t73-176.5q0-100-56.5-165.5t-173.5-82.5q70-86 132.5-187t111.5-212h-98q-45 94-103.5 195.5t-144.5 199.5h-137v-395h-88zM629 649h182q94 0 144.5 39t50.5 131q0 162-187 162h-190v-332z" glyph-name="registered" horiz-adv-x="1589" unicode="&#xae;"/><glyph d="M61 1227v92h586v-92h-586z" glyph-name="macron" horiz-adv-x="708" unicode="&#xaf;"/><glyph d="M84 1079q0 57 22.5 108.5t60.5 91.5 89 63.5 109 23.5q57 0 108-22.5t90-62.5 60.5-92 21.5-110q0-59-21.5-110t-60.5-91-90-62.5-108-22.5q-58-1-109 22t-89 63-60.5 91-22.5 110zM172 1079q0-41 14-78 16-35 43-61.5t62-41.5 74-15q43 0 77.5 16t61 43 41 62.5 14.5 74.5-14.5 75-40 63.5-61 44-78.5 16.5q-82 0-137.5-57.5t-55.5-141.5z" glyph-name="degree" horiz-adv-x="729" unicode="&#xb0;"/><glyph d="M86 0v98h926v-98h-926zM90 692v101h412v454h100v-454h410v-101h-410v-452h-100v452h-412z" glyph-name="plusminus" unicode="&#xb1;"/><glyph d="M80 1286q84 90 213 90 98 0 156.5-47t58.5-133q0-39-13.5-68.5t-38-55.5-61.5-48.5-84-46.5q-66-35-101.5-77t-35.5-120v-14h348l-12-78h-424v74q0 113 47 174t137 108q82 43 115 76t33 80q0 45-34 71.5t-95 26.5q-47 0-83-16t-81-57z" glyph-name="uni00B2" horiz-adv-x="589" unicode="&#xb2;"/><glyph d="M74 756l45 61q45-35 85-49t87-14q78 0 119 38.5t41 104.5q0 63-42 100t-124 37q-31 0-52-6l-20 31q41 59 86 117.5t92 113.5h-289l13 76h405v-45q-55-59-99-110.5t-85-108.5q94-4 150.5-58.5t56.5-142.5q0-53-20.5-94t-54.5-70-80-44-97-15q-68 0-119 20.5t-98 57.5z" glyph-name="uni00B3" horiz-adv-x="589" unicode="&#xb3;"/><glyph d="M94 1180l338 286 74-86-363-260z" glyph-name="acute" horiz-adv-x="598" unicode="&#xb4;"/><glyph d="M164-387v1356l108 14v-623q0-68 21.5-122t58.5-91.5 87-58 110-20.5q57 0 105 14t85 38.5 61.5 55.5 37.5 64q10 29 12 64.5t2 70.5v594l109 14v-770q0-70 13-107.5t66-37.5q16 0 30.5 4t29.5 8l16-84q-18-8-43.5-13.5t-48.5-5.5q-72 0-113 37t-51 105q-53-63-128-102.5t-185-39.5q-94 0-167 37t-112 107v-508h-104z" glyph-name="mu" horiz-adv-x="1138" unicode="&#xb5;"/><glyph d="M66 979q0 80 29.5 150.5t79.5 123 118.5 83 146.5 30.5h125v-1663h-100v889q-86 0-160 30.5t-127 83-82.5 123-29.5 150.5zM743-297v1663h103v-1663h-103z" glyph-name="paragraph" horiz-adv-x="978" unicode="&#xb6;"/><glyph d="M184 756q0 41 27.5 68.5t66.5 27.5 66.5-27.5 27.5-68.5-27.5-68.5-66.5-27.5-66.5 27.5-27.5 68.5z" glyph-name="periodcentered" horiz-adv-x="559" unicode="&#xb7;"/><glyph d="M4-356l105 266h124l-145-266h-84z" glyph-name="cedilla" horiz-adv-x="489" unicode="&#xb8;"/><glyph d="M86 1212q53 41 108.5 78t122.5 76h43v-600h166l-12-78h-405l12 78h153v479q-41-23-73.5-44t-69.5-50z" glyph-name="uni00B9" horiz-adv-x="589" unicode="&#xb9;"/><glyph d="M59 1135q0 72 19.5 140t59.5 120.5 100.5 84 140.5 31.5 140.5-31.5 100-85 60-121 20.5-140.5q0-72-20.5-140.5t-60-123-100-87-140.5-32.5q-78-1-139 32-59 33-99.5 87.5t-61 124-20.5 141.5zM154 1135q0-57 14-111.5t41-97.5q29-43 71-70t99-27 100 27 71 70 42 97 14 112q0 55-14 109t-42 95-71 67-100 26-100-26-71-67-41-95-13-109z" glyph-name="ordmasculine" horiz-adv-x="759" unicode="&#xba;"/><glyph d="M70 850l69 59 381-387-381-395-67 68 309 325zM432 860l72 62 385-400-379-401-68 63 310 336z" glyph-name="guillemotright" horiz-adv-x="950" unicode="&#xbb;"/><glyph d="M86 0l1317 1366h129l-1317-1366h-129zM86 1212q53 41 108.5 78t122.5 76h43v-600h166l-12-78h-405l12 78h153v479q-41-23-73.5-44t-69.5-50zM944 166v39q63 121 141 235.5t177 235.5l69-41q-86-102-153.5-197.5t-122.5-197.5h219v172l82 14v-186h96l-12-74h-84v-166h-82v166h-330z" glyph-name="onequarter" horiz-adv-x="1478" unicode="&#xbc;"/><glyph d="M-2 0l1317 1366h129l-1317-1366h-129zM86 1212q53 41 108.5 78t122.5 76h43v-600h166l-12-78h-405l12 78h153v479q-41-23-73.5-44t-69.5-50zM969 598q84 90 213 90 98 0 156.5-47t58.5-133q0-39-13.5-68.5t-38-55.5-61.5-48.5-84-46.5q-66-35-101.5-77t-35.5-120v-14h348l-12-78h-424v74q0 113 47 174t137 108q82 43 115 76t33 80q0 45-34 71.5t-95 26.5q-47 0-83-16t-81-57z" glyph-name="onehalf" horiz-adv-x="1478" unicode="&#xbd;"/><glyph d="M64 0l1317 1366h129l-1317-1366h-129zM74 756l45 61q45-35 85-49t87-14q78 0 119 38.5t41 104.5q0 63-42 100t-124 37q-31 0-52-6l-20 31q41 59 86 117.5t92 113.5h-289l13 76h405v-45q-55-59-99-110.5t-85-108.5q94-4 150.5-58.5t56.5-142.5q0-53-20.5-94t-54.5-70-80-44-97-15q-68 0-119 20.5t-98 57.5zM944 166v39q63 121 141 235.5t177 235.5l69-41q-86-102-153.5-197.5t-122.5-197.5h219v172l82 14v-186h96l-12-74h-84v-166h-82v166h-330z" glyph-name="threequarters" horiz-adv-x="1478" unicode="&#xbe;"/><glyph d="M25-90q0 61 13 110.5t37.5 93.5 58.5 87 75 90q70 80 101.5 130t33.5 111l2 54h86q2-16 3-32.5t1-31.5q0-45-9-80.5t-27.5-69.5-44-66-58.5-66q-72-78-118-153t-46-175q0-104 62.5-162.5t175.5-58.5q49 0 92 15t77.5 41 62.5 57.5 50 62.5l76-53q-23-37-56.5-75t-77.5-68.5-101.5-50-124.5-19.5q-160 0-252 77.5t-92 231.5zM295 903q0 43 27.5 70.5t68.5 27.5 67.5-27.5 26.5-70.5q0-41-26.5-69.5t-67.5-28.5-68.5 28.5-27.5 69.5z" glyph-name="questiondown" horiz-adv-x="735" unicode="&#xbf;"/><glyph d="M6 0q131 403 265.5 735t277.5 631h37q72-152 139.5-308.5t134-324.5 131-349 131.5-384h-114q-39 119-77 227.5t-75 212.5h-588q-37-104-74.5-212.5t-74.5-227.5h-113zM305 543h514q-70 188-134.5 347t-121.5 292q-57-133-122.5-292t-135.5-347zM317 1716l76 82 338-286-49-56z" glyph-name="Agrave" horiz-adv-x="1128" unicode="&#xc0;"/><glyph d="M6 0q131 403 265.5 735t277.5 631h37q72-152 139.5-308.5t134-324.5 131-349 131.5-384h-114q-39 119-77 227.5t-75 212.5h-588q-37-104-74.5-212.5t-74.5-227.5h-113zM305 543h514q-70 188-134.5 347t-121.5 292q-57-133-122.5-292t-135.5-347zM368 1516l338 286 74-86-363-260z" glyph-name="Aacute" horiz-adv-x="1128" unicode="&#xc1;"/><glyph d="M6 0q131 403 265.5 735t277.5 631h37q72-152 139.5-308.5t134-324.5 131-349 131.5-384h-114q-39 119-77 227.5t-75 212.5h-588q-37-104-74.5-212.5t-74.5-227.5h-113zM268 1499l256 307h82l252-307-67-47-226 266-227-266zM305 543h514q-70 188-134.5 347t-121.5 292q-57-133-122.5-292t-135.5-347z" glyph-name="Acircumflex" horiz-adv-x="1128" unicode="&#xc2;"/><glyph d="M6 0q131 403 265.5 735t277.5 631h37q72-152 139.5-308.5t134-324.5 131-349 131.5-384h-114q-39 119-77 227.5t-75 212.5h-588q-37-104-74.5-212.5t-74.5-227.5h-113zM229 1567q29 72 79 118t118 46q41 0 82-19.5t80-42.5q23-14 52-31.5t58-17.5q72 0 125 109l74-35q-31-78-80-120t-119-42q-33 0-68.5 17.5t-74.5 39.5q-39 23-66.5 38.5t-60.5 15.5q-70 0-125-113zM305 543h514q-70 188-134.5 347t-121.5 292q-57-133-122.5-292t-135.5-347z" glyph-name="Atilde" horiz-adv-x="1128" unicode="&#xc3;"/><glyph d="M6 0q131 403 265.5 735t277.5 631h37q72-152 139.5-308.5t134-324.5 131-349 131.5-384h-114q-39 119-77 227.5t-75 212.5h-588q-37-104-74.5-212.5t-74.5-227.5h-113zM305 543h514q-70 188-134.5 347t-121.5 292q-57-133-122.5-292t-135.5-347zM322 1614q0 41 23.5 65.5t62.5 24.5 62.5-24.5 23.5-65.5-23.5-65.5-62.5-24.5-62.5 24.5-23.5 65.5zM633 1614q0 41 23.5 65.5t62.5 24.5 62.5-24.5 23.5-65.5-23.5-65.5-62.5-24.5-62.5 24.5-23.5 65.5z" glyph-name="Adieresis" horiz-adv-x="1128" unicode="&#xc4;"/><glyph d="M6 0q131 403 265.5 735t277.5 631h37q72-152 139.5-308.5t134-324.5 131-349 131.5-384h-114q-39 119-77 227.5t-75 212.5h-588q-37-104-74.5-212.5t-74.5-227.5h-113zM305 543h514q-70 188-134.5 347t-121.5 292q-57-133-122.5-292t-135.5-347zM378 1636q0 82 51.5 142.5t141.5 60.5q88 0 139-60.5t51-140.5q0-41-13-76.5t-37.5-64.5-60.5-45-79-16q-90 0-141.5 60.5t-51.5 139.5zM448 1638q0-53 34-95t89-42q53 0 87 41t34 96q0 53-34 94.5t-87 41.5q-55 0-89-41t-34-95z" glyph-name="Aring" horiz-adv-x="1128" unicode="&#xc5;"/><glyph d="M0 0q115 205 216 378t200.5 332.5 204 318.5 225.5 337h807l-15-100h-647v-490h482l-15-102h-469v-574h705l-15-100h-800v444h-502q-63-104-127-213.5t-131-230.5h-119zM436 547h443v692q-117-174-224.5-340t-218.5-352z" glyph-name="AE" horiz-adv-x="1773" unicode="&#xc6;"/><glyph d="M100 678q0 174 42 307t115 223 169 137.5 207 47.5q168 0 276.5-77t167.5-200l-94-51q-23 43-53.5 84t-73.5 72.5-96 50-119 18.5q-90 0-168-40t-135-117.5-89-192.5-32-264q0-133 32-243.5t89-189.5 139-123 180-44q66 0 118 17.5t93 47 74 69.5 57 85l88-53q-31-57-70.5-106.5t-92-85.5-119-56.5-150.5-20.5q-129 0-232.5 49.5t-175 141.5-109.5 222-38 292zM498-356l105 266h124l-145-266h-84z" glyph-name="Ccedilla" horiz-adv-x="1136" unicode="&#xc7;"/><glyph d="M166 0v1366h774l-14-100h-647v-490h481l-15-102h-469v-574h705l-14-100h-801zM309 1716l76 82 338-286-49-56z" glyph-name="Egrave" horiz-adv-x="1060" unicode="&#xc8;"/><glyph d="M166 0v1366h774l-14-100h-647v-490h481l-15-102h-469v-574h705l-14-100h-801zM366 1516l338 286 74-86-363-260z" glyph-name="Eacute" horiz-adv-x="1060" unicode="&#xc9;"/><glyph d="M166 0v1366h774l-14-100h-647v-490h481l-15-102h-469v-574h705l-14-100h-801zM247 1499l256 307h82l252-307-67-47-226 266-227-266z" glyph-name="Ecircumflex" horiz-adv-x="1060" unicode="&#xca;"/><glyph d="M166 0v1366h774l-14-100h-647v-490h481l-15-102h-469v-574h705l-14-100h-801zM307 1630q0 41 23.5 65.5t62.5 24.5 62.5-24.5 23.5-65.5-23.5-65.5-62.5-24.5-62.5 24.5-23.5 65.5zM618 1630q0 41 23.5 65.5t62.5 24.5 62.5-24.5 23.5-65.5-23.5-65.5-62.5-24.5-62.5 24.5-23.5 65.5z" glyph-name="Edieresis" horiz-adv-x="1060" unicode="&#xcb;"/><glyph d="M6 1716l76 82 338-286-49-56zM166 0v1366l113 12v-1378h-113z" glyph-name="Igrave" horiz-adv-x="444" unicode="&#xcc;"/><glyph d="M41 1516l338 286 74-86-363-260zM166 0v1366l113 12v-1378h-113z" glyph-name="Iacute" horiz-adv-x="444" unicode="&#xcd;"/><glyph d="M-64 1499l256 307h82l252-307-67-47-226 266-227-266zM166 0v1366l113 12v-1378h-113z" glyph-name="Icircumflex" horiz-adv-x="444" unicode="&#xce;"/><glyph d="M-12 1612q0 41 23.5 65.5t62.5 24.5 62.5-24.5 23.5-65.5-23.5-65.5-62.5-24.5-62.5 24.5-23.5 65.5zM166 0v1366l113 12v-1378h-113zM299 1612q0 41 23.5 65.5t62.5 24.5 62.5-24.5 23.5-65.5-23.5-65.5-62.5-24.5-62.5 24.5-23.5 65.5z" glyph-name="Idieresis" horiz-adv-x="444" unicode="&#xcf;"/><glyph d="M4 678v96h162v592h336q92 0 180-17.5t160-54.5q147-74 230-222t83-370q0-274-109.5-442t-302.5-227q-53-16-115.5-24.5t-125.5-8.5h-336v678h-162zM276 100h232q53 4 100 9.5t90 19.5q156 53 248 190.5t92 374.5q0 180-58 300t-165 188q-66 41-149.5 61.5t-176.5 20.5h-213v-490h340v-96h-340v-578z" glyph-name="Eth" horiz-adv-x="1232" unicode="&#xd0;"/><glyph d="M166 0v1366h43q129-141 254-293.5t234.5-296 199.5-269.5 150-214v1073l112 12v-1378h-41q-215 332-432 620.5t-412 512.5v-1133h-108zM342 1567q29 72 79 118t118 46q41 0 82-19.5t80-42.5q23-14 52-31.5t58-17.5q72 0 125 109l74-35q-31-78-80-120t-119-42q-33 0-68.5 17.5t-74.5 39.5q-39 23-66.5 38.5t-60.5 15.5q-70 0-125-113z" glyph-name="Ntilde" horiz-adv-x="1325" unicode="&#xd1;"/><glyph d="M100 684q0 137 36 265t106.5 226.5 175 158 244.5 59.5q141 0 245.5-60.5t173-160 102.5-227.5 34-261-34-261-102.5-227.5-173-161-245.5-61.5q-144 1-250 60-104 61-174 160.5t-104 227.5-34 263zM217 684q0-111 27-220.5t82-197.5q55-86 139-139t197-53 194.5 54 136 140 81 195.5 26.5 220.5-25.5 219.5-80 194.5-137.5 140-195 54q-117 0-201-53t-138.5-140-80-195.5-25.5-219.5zM446 1716l76 82 338-286-49-56z" glyph-name="Ograve" horiz-adv-x="1316" unicode="&#xd2;"/><glyph d="M100 684q0 137 36 265t106.5 226.5 175 158 244.5 59.5q141 0 245.5-60.5t173-160 102.5-227.5 34-261-34-261-102.5-227.5-173-161-245.5-61.5q-144 1-250 60-104 61-174 160.5t-104 227.5-34 263zM217 684q0-111 27-220.5t82-197.5q55-86 139-139t197-53 194.5 54 136 140 81 195.5 26.5 220.5-25.5 219.5-80 194.5-137.5 140-195 54q-117 0-201-53t-138.5-140-80-195.5-25.5-219.5zM461 1516l338 286 74-86-363-260z" glyph-name="Oacute" horiz-adv-x="1316" unicode="&#xd3;"/><glyph d="M100 684q0 137 36 265t106.5 226.5 175 158 244.5 59.5q141 0 245.5-60.5t173-160 102.5-227.5 34-261-34-261-102.5-227.5-173-161-245.5-61.5q-144 1-250 60-104 61-174 160.5t-104 227.5-34 263zM217 684q0-111 27-220.5t82-197.5q55-86 139-139t197-53 194.5 54 136 140 81 195.5 26.5 220.5-25.5 219.5-80 194.5-137.5 140-195 54q-117 0-201-53t-138.5-140-80-195.5-25.5-219.5zM362 1499l256 307h82l252-307-67-47-226 266-227-266z" glyph-name="Ocircumflex" horiz-adv-x="1316" unicode="&#xd4;"/><glyph d="M100 684q0 137 36 265t106.5 226.5 175 158 244.5 59.5q141 0 245.5-60.5t173-160 102.5-227.5 34-261-34-261-102.5-227.5-173-161-245.5-61.5q-144 1-250 60-104 61-174 160.5t-104 227.5-34 263zM217 684q0-111 27-220.5t82-197.5q55-86 139-139t197-53 194.5 54 136 140 81 195.5 26.5 220.5-25.5 219.5-80 194.5-137.5 140-195 54q-117 0-201-53t-138.5-140-80-195.5-25.5-219.5zM321 1567q29 72 79 118t118 46q41 0 82-19.5t80-42.5q23-14 52-31.5t58-17.5q72 0 125 109l74-35q-31-78-80-120t-119-42q-33 0-68.5 17.5t-74.5 39.5q-39 23-66.5 38.5t-60.5 15.5q-70 0-125-113z" glyph-name="Otilde" horiz-adv-x="1316" unicode="&#xd5;"/><glyph d="M100 684q0 137 36 265t106.5 226.5 175 158 244.5 59.5q141 0 245.5-60.5t173-160 102.5-227.5 34-261-34-261-102.5-227.5-173-161-245.5-61.5q-144 1-250 60-104 61-174 160.5t-104 227.5-34 263zM217 684q0-111 27-220.5t82-197.5q55-86 139-139t197-53 194.5 54 136 140 81 195.5 26.5 220.5-25.5 219.5-80 194.5-137.5 140-195 54q-117 0-201-53t-138.5-140-80-195.5-25.5-219.5zM424 1630q0 41 23.5 65.5t62.5 24.5 62.5-24.5 23.5-65.5-23.5-65.5-62.5-24.5-62.5 24.5-23.5 65.5zM735 1630q0 41 23.5 65.5t62.5 24.5 62.5-24.5 23.5-65.5-23.5-65.5-62.5-24.5-62.5 24.5-23.5 65.5z" glyph-name="Odieresis" horiz-adv-x="1316" unicode="&#xd6;"/><glyph d="M172 377l305 303-305 305 72 74 305-305 307 305 72-74-305-305 305-303-72-76-307 307-305-307z" glyph-name="multiply" unicode="&#xd7;"/><glyph d="M100 684q0 137 36 265t106.5 226.5 175 158 244.5 59.5q141 0 245.5-60.5t173-160 102.5-227.5 34-261-34-261-102.5-227.5-173-161-245.5-61.5q-141 1-250 60-78 45-136.5 114.5t-97.5 154.5-58.5 182.5-19.5 199.5zM217 684q0-104 22.5-205.5t69.5-187.5l637 870q-53 59-122.5 95t-161.5 36q-117 0-201-53t-138.5-140-80-195.5-25.5-219.5zM371 207q53-61 126-97t165-36q113 0 194.5 54t136 140 81 195.5 26.5 220.5q0 104-23.5 204.5t-70.5 186.5z" glyph-name="Oslash" horiz-adv-x="1316" unicode="&#xd8;"/><glyph d="M156 455v911l112 12v-893q0-188 97.5-298.5t279.5-110.5q184 0 281.5 107.5t97.5 301.5v881l113 12v-923q0-117-39-207t-105.5-150.5-157-92.5-192.5-32q-104 0-193.5 32t-155 92.5-102 150.5-36.5 207zM407 1716l76 82 338-286-49-56z" glyph-name="Ugrave" horiz-adv-x="1292" unicode="&#xd9;"/><glyph d="M156 455v911l112 12v-893q0-188 97.5-298.5t279.5-110.5q184 0 281.5 107.5t97.5 301.5v881l113 12v-923q0-117-39-207t-105.5-150.5-157-92.5-192.5-32q-104 0-193.5 32t-155 92.5-102 150.5-36.5 207zM477 1516l338 286 74-86-363-260z" glyph-name="Uacute" horiz-adv-x="1292" unicode="&#xda;"/><glyph d="M156 455v911l112 12v-893q0-188 97.5-298.5t279.5-110.5q184 0 281.5 107.5t97.5 301.5v881l113 12v-923q0-117-39-207t-105.5-150.5-157-92.5-192.5-32q-104 0-193.5 32t-155 92.5-102 150.5-36.5 207zM364 1499l256 307h82l252-307-67-47-226 266-227-266z" glyph-name="Ucircumflex" horiz-adv-x="1292" unicode="&#xdb;"/><glyph d="M156 455v911l112 12v-893q0-188 97.5-298.5t279.5-110.5q184 0 281.5 107.5t97.5 301.5v881l113 12v-923q0-117-39-207t-105.5-150.5-157-92.5-192.5-32q-104 0-193.5 32t-155 92.5-102 150.5-36.5 207zM403 1630q0 41 23.5 65.5t62.5 24.5 62.5-24.5 23.5-65.5-23.5-65.5-62.5-24.5-62.5 24.5-23.5 65.5zM714 1630q0 41 23.5 65.5t62.5 24.5 62.5-24.5 23.5-65.5-23.5-65.5-62.5-24.5-62.5 24.5-23.5 65.5z" glyph-name="Udieresis" horiz-adv-x="1292" unicode="&#xdc;"/><glyph d="M6 1360l117 14q39-80 82-159.5t91-163.5 105.5-175.5 126.5-191.5q68 102 123.5 190.5t103.5 170 89 158.5 80 157l129 16q-49-98-99.5-191t-106.5-188.5-122-197-145-217.5v-582h-113v590q-78 115-141.5 214t-118.5 191-103.5 180.5-97.5 184.5zM366 1516l338 286 74-86-363-260z" glyph-name="Yacute" horiz-adv-x="1058" unicode="&#xdd;"/><glyph d="M166 0v1366l113 12v-268h307q207 0 319.5-101.5t112.5-297.5q0-98-32-172t-89-123-136-74-171-25h-311v-317h-113zM279 418h311q143 0 225 77.5t82 213.5q0 141-77 221t-232 80h-309v-592z" glyph-name="Thorn" horiz-adv-x="1052" unicode="&#xde;"/><glyph d="M33 905v70h145v65q0 172 98.5 262.5t255.5 90.5q160 0 250-89.5t107-256.5q4-35 4-76v-78h-158q-76 0-135-34t-59-105q0-33 11-57.5t36.5-48 67.5-46 104-49.5q131-57 192.5-128t61.5-181q0-123-84-195t-215-72q-63 0-111.5 10.5t-85.5 32-64.5 52-52.5 71.5l88 56q35-66 87.5-98.5t138.5-32.5q88 0 141 45t53 123q0 86-58 140t-183 107q-53 23-95.5 47.5t-72 55-46 71.5-16.5 95q0 98 66.5 156.5t179.5 68.5q27 2 52.5 4t54.5 2q-4 162-69 241t-181 79q-125 0-190.5-72t-65.5-223v-1008h-107v885z" glyph-name="germandbls" horiz-adv-x="1073" unicode="&#xdf;"/><glyph d="M80 276q0 106 54 177t140 112 195 57.5 219 18.5v43q0 113-57.5 170t-163.5 57q-78 0-138.5-33.5t-99.5-78.5l-73 57q51 63 124.5 104t190.5 41q324 0 324-327v-674h-97l-8 84q-49-49-117.5-78t-166.5-29q-70 0-129.5 19.5t-103.5 57.5-68.5 94.5-24.5 127.5zM188 274q0-53 19.5-92t52.5-64.5 75-37.5 85-12q82 0 151.5 34.5t116.5 81.5v365q-84-2-173-12.5t-161.5-40-119-83-46.5-139.5zM229 1380l76 82 338-286-49-56z" glyph-name="agrave" horiz-adv-x="929" unicode="&#xe0;"/><glyph d="M80 276q0 106 54 177t140 112 195 57.5 219 18.5v43q0 113-57.5 170t-163.5 57q-78 0-138.5-33.5t-99.5-78.5l-73 57q51 63 124.5 104t190.5 41q324 0 324-327v-674h-97l-8 84q-49-49-117.5-78t-166.5-29q-70 0-129.5 19.5t-103.5 57.5-68.5 94.5-24.5 127.5zM188 274q0-53 19.5-92t52.5-64.5 75-37.5 85-12q82 0 151.5 34.5t116.5 81.5v365q-84-2-173-12.5t-161.5-40-119-83-46.5-139.5zM319 1180l338 286 74-86-363-260z" glyph-name="aacute" horiz-adv-x="929" unicode="&#xe1;"/><glyph d="M80 276q0 106 54 177t140 112 195 57.5 219 18.5v43q0 113-57.5 170t-163.5 57q-78 0-138.5-33.5t-99.5-78.5l-73 57q51 63 124.5 104t190.5 41q324 0 324-327v-674h-97l-8 84q-49-49-117.5-78t-166.5-29q-70 0-129.5 19.5t-103.5 57.5-68.5 94.5-24.5 127.5zM176 1163l256 307h82l252-307-67-47-226 266-227-266zM188 274q0-53 19.5-92t52.5-64.5 75-37.5 85-12q82 0 151.5 34.5t116.5 81.5v365q-84-2-173-12.5t-161.5-40-119-83-46.5-139.5z" glyph-name="acircumflex" horiz-adv-x="929" unicode="&#xe2;"/><glyph d="M80 276q0 106 54 177t140 112 195 57.5 219 18.5v43q0 113-57.5 170t-163.5 57q-78 0-138.5-33.5t-99.5-78.5l-73 57q51 63 124.5 104t190.5 41q324 0 324-327v-674h-97l-8 84q-49-49-117.5-78t-166.5-29q-70 0-129.5 19.5t-103.5 57.5-68.5 94.5-24.5 127.5zM127 1231q29 72 79 118t118 46q41 0 82-19.5t80-42.5q23-14 52-31.5t58-17.5q72 0 125 109l74-35q-31-78-80-120t-119-42q-33 0-68.5 17.5t-74.5 39.5q-39 23-66.5 38.5t-60.5 15.5q-70 0-125-113zM188 274q0-53 19.5-92t52.5-64.5 75-37.5 85-12q82 0 151.5 34.5t116.5 81.5v365q-84-2-173-12.5t-161.5-40-119-83-46.5-139.5z" glyph-name="atilde" horiz-adv-x="929" unicode="&#xe3;"/><glyph d="M80 276q0 106 54 177t140 112 195 57.5 219 18.5v43q0 113-57.5 170t-163.5 57q-78 0-138.5-33.5t-99.5-78.5l-73 57q51 63 124.5 104t190.5 41q324 0 324-327v-674h-97l-8 84q-49-49-117.5-78t-166.5-29q-70 0-129.5 19.5t-103.5 57.5-68.5 94.5-24.5 127.5zM188 274q0-53 19.5-92t52.5-64.5 75-37.5 85-12q82 0 151.5 34.5t116.5 81.5v365q-84-2-173-12.5t-161.5-40-119-83-46.5-139.5zM231 1276q0 41 23.5 65.5t62.5 24.5 62.5-24.5 23.5-65.5-23.5-65.5-62.5-24.5-62.5 24.5-23.5 65.5zM542 1276q0 41 23.5 65.5t62.5 24.5 62.5-24.5 23.5-65.5-23.5-65.5-62.5-24.5-62.5 24.5-23.5 65.5z" glyph-name="adieresis" horiz-adv-x="929" unicode="&#xe4;"/><glyph d="M80 276q0 106 54 177t140 112 195 57.5 219 18.5v43q0 113-57.5 170t-163.5 57q-78 0-138.5-33.5t-99.5-78.5l-73 57q51 63 124.5 104t190.5 41q324 0 324-327v-674h-97l-8 84q-49-49-117.5-78t-166.5-29q-70 0-129.5 19.5t-103.5 57.5-68.5 94.5-24.5 127.5zM188 274q0-53 19.5-92t52.5-64.5 75-37.5 85-12q82 0 151.5 34.5t116.5 81.5v365q-84-2-173-12.5t-161.5-40-119-83-46.5-139.5zM288 1296q0 82 51.5 142.5t141.5 60.5q88 0 139-60.5t51-140.5q0-41-13-76.5t-37.5-64.5-60.5-45-79-16q-90 0-141.5 60.5t-51.5 139.5zM358 1298q0-53 34-95t89-42q53 0 87 41t34 96q0 53-34 94.5t-87 41.5q-55 0-89-41t-34-95z" glyph-name="aring" horiz-adv-x="929" unicode="&#xe5;"/><glyph d="M80 276q0 117 65.5 189t169.5 104q86 29 181.5 36t203.5 7v72q0 117-63.5 172t-167.5 55q-74 0-136.5-31.5t-103.5-80.5l-77 53q51 66 126.5 107.5t198.5 41.5q119 0 189.5-43t105.5-127q47 78 119 124t190 46q100 0 174-34.5t124.5-99 75-154.5 26.5-203h-678q0-100 17.5-181t54-139.5 96-90 145.5-31.5q100 0 162.5 45t105.5 125l78-45q-25-47-55.5-86t-72.5-68-96-45.5-126-16.5-128 16.5-98 44.5-71 62.5-47 73.5q-18-39-47-73.5t-69-62.5-94-44.5-124-16.5q-158 0-256 77t-98 222zM188 274q0-104 68-155t180-51q57 0 106.5 18t84.5 50 54 75 19 92v219q-84 0-160.5-4t-146.5-20q-86-20-145.5-74.5t-59.5-149.5zM803 600h559q-4 82-29.5 140.5t-63.5 96-87 56-101 18.5q-123 0-196.5-81.5t-81.5-229.5z" glyph-name="ae" horiz-adv-x="1554" unicode="&#xe6;"/><glyph d="M96 487q0 129 35 225.5t93.5 161 135 96 162.5 31.5q76 0 132.5-19t96.5-50 67.5-68 43.5-73l-84-50q-37 74-97 122t-159 48q-72 0-130-31.5t-100-88-65.5-133-23.5-169.5q0-96 23.5-172.5t67.5-132 105.5-85 135.5-29.5q172 0 266 161l80-51q-51-92-139.5-147.5t-213.5-55.5q-92 0-170.5 34t-137 99.5-91.5 160-33 216.5zM366-356l105 266h124l-145-266h-84z" glyph-name="ccedilla" horiz-adv-x="931" unicode="&#xe7;"/><glyph d="M96 489q0 119 31 214.5t86 161 132 101 169 35.5q98 0 173-35.5t126-100 78-157 31-202.5h-723q0-207 88-322.5t256-115.5q104 0 171.5 50t110.5 126l78-49q-25-43-56.5-82t-75.5-70-101.5-48.5-130.5-17.5q-209 0-326 134.5t-117 377.5zM207 596h594q-4 82-31 142.5t-66.5 98-89 56-100.5 18.5q-117 0-201-74.5t-106-240.5zM276 1380l76 82 338-286-49-56z" glyph-name="egrave" horiz-adv-x="995" unicode="&#xe8;"/><glyph d="M96 489q0 119 31 214.5t86 161 132 101 169 35.5q98 0 173-35.5t126-100 78-157 31-202.5h-723q0-207 88-322.5t256-115.5q104 0 171.5 50t110.5 126l78-49q-25-43-56.5-82t-75.5-70-101.5-48.5-130.5-17.5q-209 0-326 134.5t-117 377.5zM207 596h594q-4 82-31 142.5t-66.5 98-89 56-100.5 18.5q-117 0-201-74.5t-106-240.5zM315 1180l338 286 74-86-363-260z" glyph-name="eacute" horiz-adv-x="995" unicode="&#xe9;"/><glyph d="M96 489q0 119 31 214.5t86 161 132 101 169 35.5q98 0 173-35.5t126-100 78-157 31-202.5h-723q0-207 88-322.5t256-115.5q104 0 171.5 50t110.5 126l78-49q-25-43-56.5-82t-75.5-70-101.5-48.5-130.5-17.5q-209 0-326 134.5t-117 377.5zM207 596h594q-4 82-31 142.5t-66.5 98-89 56-100.5 18.5q-117 0-201-74.5t-106-240.5zM219 1163l256 307h82l252-307-67-47-226 266-227-266z" glyph-name="ecircumflex" horiz-adv-x="995" unicode="&#xea;"/><glyph d="M96 489q0 119 31 214.5t86 161 132 101 169 35.5q98 0 173-35.5t126-100 78-157 31-202.5h-723q0-207 88-322.5t256-115.5q104 0 171.5 50t110.5 126l78-49q-25-43-56.5-82t-75.5-70-101.5-48.5-130.5-17.5q-209 0-326 134.5t-117 377.5zM207 596h594q-4 82-31 142.5t-66.5 98-89 56-100.5 18.5q-117 0-201-74.5t-106-240.5zM283 1276q0 41 23.5 65.5t62.5 24.5 62.5-24.5 23.5-65.5-23.5-65.5-62.5-24.5-62.5 24.5-23.5 65.5zM594 1276q0 41 23.5 65.5t62.5 24.5 62.5-24.5 23.5-65.5-23.5-65.5-62.5-24.5-62.5 24.5-23.5 65.5z" glyph-name="edieresis" horiz-adv-x="995" unicode="&#xeb;"/><glyph d="M-53 1380l76 82 338-286-49-56zM141 0v969l107 14v-983h-107z" glyph-name="igrave" horiz-adv-x="391" unicode="&#xec;"/><glyph d="M51 1180l338 286 74-86-363-260zM141 0v969l107 14v-983h-107z" glyph-name="iacute" horiz-adv-x="391" unicode="&#xed;"/><glyph d="M-97 1163l256 307h82l252-307-67-47-226 266-227-266zM141 0v969l107 14v-983h-107z" glyph-name="icircumflex" horiz-adv-x="391" unicode="&#xee;"/><glyph d="M-45 1276q0 41 23.5 65.5t62.5 24.5 62.5-24.5 23.5-65.5-23.5-65.5-62.5-24.5-62.5 24.5-23.5 65.5zM141 0v969l107 14v-983h-107zM266 1276q0 41 23.5 65.5t62.5 24.5 62.5-24.5 23.5-65.5-23.5-65.5-62.5-24.5-62.5 24.5-23.5 65.5z" glyph-name="idieresis" horiz-adv-x="391" unicode="&#xef;"/><glyph d="M96 492q0 119 32 214t88 160.5 135 100 173 34.5q92 0 153.5-20t108.5-49q-35 78-84 146.5t-110 113.5l-84-113-66 43 84 111q-41 25-96 45t-104 33l22 78q66-10 124-33t106-51l88 114 63-43-88-114q70-51 128-120t100-158 65.5-199.5 23.5-241.5q0-147-32.5-254t-91-175.5-136-102.5-168.5-34q-90 0-169.5 32t-138 96.5-92.5 160.5-34 226zM203 492q0-104 25.5-183.5t69.5-132.5 104.5-80.5 127.5-27.5q68 0 126.5 27.5t102.5 85 68.5 146.5 24.5 214q0 85-12 159t-25 121q-59 37-129 63.5t-158 26.5q-143 0-234-108.5t-91-310.5z" glyph-name="eth" horiz-adv-x="1052" unicode="&#xf0;"/><glyph d="M141 0v969l99 14 8-98q61 47 138 81.5t187 34.5q358 0 359-389v-612h-107v623q0 135-65.5 210.5t-200.5 75.5q-98 0-175-39t-136-88v-782h-107zM211 1231q29 72 79 118t118 46q41 0 82-19.5t80-42.5q23-14 52-31.5t58-17.5q72 0 125 109l74-35q-31-78-80-120t-119-42q-33 0-68.5 17.5t-74.5 39.5q-39 23-66.5 38.5t-60.5 15.5q-70 0-125-113z" glyph-name="ntilde" horiz-adv-x="1067" unicode="&#xf1;"/><glyph d="M96 496q0 98 28 189t82 162 135 112.5 189 41.5q106 0 188.5-43t137.5-113.5 83-162.5 28-190q0-100-28-193.5t-83-164.5-137-114-189-43q-106 0-188 43-80 45-135 117t-83 166-28 193zM203 496q0-80 20.5-157t61.5-138q41-59 102.5-96t142.5-37q84 0 145.5 37.5t102.5 98 61.5 136.5 20.5 154-20.5 152.5-61.5 134-102.5 95-145.5 35.5-145-35.5-102-94-60.5-133.5-19.5-152zM293 1380l76 82 338-286-49-56z" glyph-name="ograve" horiz-adv-x="1062" unicode="&#xf2;"/><glyph d="M96 496q0 98 28 189t82 162 135 112.5 189 41.5q106 0 188.5-43t137.5-113.5 83-162.5 28-190q0-100-28-193.5t-83-164.5-137-114-189-43q-106 0-188 43-80 45-135 117t-83 166-28 193zM203 496q0-80 20.5-157t61.5-138q41-59 102.5-96t142.5-37q84 0 145.5 37.5t102.5 98 61.5 136.5 20.5 154-20.5 152.5-61.5 134-102.5 95-145.5 35.5-145-35.5-102-94-60.5-133.5-19.5-152zM334 1180l338 286 74-86-363-260z" glyph-name="oacute" horiz-adv-x="1062" unicode="&#xf3;"/><glyph d="M96 496q0 98 28 189t82 162 135 112.5 189 41.5q106 0 188.5-43t137.5-113.5 83-162.5 28-190q0-100-28-193.5t-83-164.5-137-114-189-43q-106 0-188 43-80 45-135 117t-83 166-28 193zM203 496q0-80 20.5-157t61.5-138q41-59 102.5-96t142.5-37q84 0 145.5 37.5t102.5 98 61.5 136.5 20.5 154-20.5 152.5-61.5 134-102.5 95-145.5 35.5-145-35.5-102-94-60.5-133.5-19.5-152zM233 1163l256 307h82l252-307-67-47-226 266-227-266z" glyph-name="ocircumflex" horiz-adv-x="1062" unicode="&#xf4;"/><glyph d="M96 496q0 98 28 189t82 162 135 112.5 189 41.5q106 0 188.5-43t137.5-113.5 83-162.5 28-190q0-100-28-193.5t-83-164.5-137-114-189-43q-106 0-188 43-80 45-135 117t-83 166-28 193zM188 1231q29 72 79 118t118 46q41 0 82-19.5t80-42.5q23-14 52-31.5t58-17.5q72 0 125 109l74-35q-31-78-80-120t-119-42q-33 0-68.5 17.5t-74.5 39.5q-39 23-66.5 38.5t-60.5 15.5q-70 0-125-113zM203 496q0-80 20.5-157t61.5-138q41-59 102.5-96t142.5-37q84 0 145.5 37.5t102.5 98 61.5 136.5 20.5 154-20.5 152.5-61.5 134-102.5 95-145.5 35.5-145-35.5-102-94-60.5-133.5-19.5-152z" glyph-name="otilde" horiz-adv-x="1062" unicode="&#xf5;"/><glyph d="M96 496q0 98 28 189t82 162 135 112.5 189 41.5q106 0 188.5-43t137.5-113.5 83-162.5 28-190q0-100-28-193.5t-83-164.5-137-114-189-43q-106 0-188 43-80 45-135 117t-83 166-28 193zM203 496q0-80 20.5-157t61.5-138q41-59 102.5-96t142.5-37q84 0 145.5 37.5t102.5 98 61.5 136.5 20.5 154-20.5 152.5-61.5 134-102.5 95-145.5 35.5-145-35.5-102-94-60.5-133.5-19.5-152zM287 1276q0 41 23.5 65.5t62.5 24.5 62.5-24.5 23.5-65.5-23.5-65.5-62.5-24.5-62.5 24.5-23.5 65.5zM598 1276q0 41 23.5 65.5t62.5 24.5 62.5-24.5 23.5-65.5-23.5-65.5-62.5-24.5-62.5 24.5-23.5 65.5z" glyph-name="odieresis" horiz-adv-x="1062" unicode="&#xf6;"/><glyph d="M88 629v100h922v-100h-922zM459 330q0 43 25.5 72.5t64.5 29.5 63.5-29.5 24.5-72.5q0-41-24.5-70t-63.5-29-64.5 29-25.5 70zM459 1034q0 43 25.5 72t64.5 29 63.5-29 24.5-72q0-41-24.5-70.5t-63.5-29.5-64.5 29.5-25.5 70.5z" glyph-name="divide" unicode="&#xf7;"/><glyph d="M96 496q0 98 28 189t82 162 135 112.5 189 41.5q106 0 188.5-43t137.5-113.5 83-162.5 28-190q0-100-28-193.5t-83-164.5-137-114-189-43q-106 0-188 43-123 68-184.5 195t-61.5 281zM203 492q0-88 23.5-170t72.5-142l397 680q-70 51-166 51-84 0-145-35.5t-102-95-60.5-134-19.5-154.5zM367 115q69-47 163-47 82 0 144.5 37.5t103.5 98 61.5 136.5 20.5 154q0 82-22.5 161.5t-69.5 139.5z" glyph-name="oslash" horiz-adv-x="1062" unicode="&#xf8;"/><glyph d="M133 346v623l109 14v-637q0-147 72.5-211.5t195.5-64.5q92 0 170 37.5t131 97.5v764l109 14v-983h-97l-8 96q-55-47-129-83t-190-36q-172 0-267.5 89.5t-95.5 279.5zM282 1380l76 82 338-286-49-56z" glyph-name="ugrave" horiz-adv-x="1060" unicode="&#xf9;"/><glyph d="M133 346v623l109 14v-637q0-147 72.5-211.5t195.5-64.5q92 0 170 37.5t131 97.5v764l109 14v-983h-97l-8 96q-55-47-129-83t-190-36q-172 0-267.5 89.5t-95.5 279.5zM358 1180l338 286 74-86-363-260z" glyph-name="uacute" horiz-adv-x="1060" unicode="&#xfa;"/><glyph d="M133 346v623l109 14v-637q0-147 72.5-211.5t195.5-64.5q92 0 170 37.5t131 97.5v764l109 14v-983h-97l-8 96q-55-47-129-83t-190-36q-172 0-267.5 89.5t-95.5 279.5zM241 1163l256 307h82l252-307-67-47-226 266-227-266z" glyph-name="ucircumflex" horiz-adv-x="1060" unicode="&#xfb;"/><glyph d="M133 346v623l109 14v-637q0-147 72.5-211.5t195.5-64.5q92 0 170 37.5t131 97.5v764l109 14v-983h-97l-8 96q-55-47-129-83t-190-36q-172 0-267.5 89.5t-95.5 279.5zM289 1276q0 41 23.5 65.5t62.5 24.5 62.5-24.5 23.5-65.5-23.5-65.5-62.5-24.5-62.5 24.5-23.5 65.5zM600 1276q0 41 23.5 65.5t62.5 24.5 62.5-24.5 23.5-65.5-23.5-65.5-62.5-24.5-62.5 24.5-23.5 65.5z" glyph-name="udieresis" horiz-adv-x="1060" unicode="&#xfc;"/><glyph d="M18-297q49 6 97.5 16.5t96.5 40 97 88 103 160.5q-129 262-226.5 498.5t-158.5 462.5l106 14q53-205 136-418t194-444q104 236 178 440.5t127 407.5l109 14q-33-125-68-238.5t-74-223-84-215-96-216.5q-72-154-133.5-247t-122.5-144-128-67.5-146-18.5zM293 1180l338 286 74-86-363-260z" glyph-name="yacute" horiz-adv-x="917" unicode="&#xfd;"/><glyph d="M141-387v1751l107 14v-479q47 39 118.5 70.5t168.5 31.5q102 0 180-36.5t129-104 76.5-160 25.5-202.5q0-117-33.5-213.5t-95-165-147.5-105.5-191-37q-76 0-133 17.5t-96 42.5v-424h-109zM250 139q37-29 92-49t127-20q82 0 150.5 29.5t116.5 84 75 133 27 177.5q0 86-18.5 161.5t-57.5 132-100.5 90-149.5 33.5q-78 0-146.5-32.5t-115.5-81.5v-658z" glyph-name="thorn" horiz-adv-x="1040" unicode="&#xfe;"/><glyph d="M18-297q49 6 97.5 16.5t96.5 40 97 88 103 160.5q-129 262-226.5 498.5t-158.5 462.5l106 14q53-205 136-418t194-444q104 236 178 440.5t127 407.5l109 14q-33-125-68-238.5t-74-223-84-215-96-216.5q-72-154-133.5-247t-122.5-144-128-67.5-146-18.5zM215 1276q0 41 23.5 65.5t62.5 24.5 62.5-24.5 23.5-65.5-23.5-65.5-62.5-24.5-62.5 24.5-23.5 65.5zM526 1276q0 41 23.5 65.5t62.5 24.5 62.5-24.5 23.5-65.5-23.5-65.5-62.5-24.5-62.5 24.5-23.5 65.5z" glyph-name="ydieresis" horiz-adv-x="917" unicode="&#xff;"/><glyph d="M100 692q0 158 48.5 283t137.5 212 214 133 276 46h924l-14-100h-619v-490h453l-15-102h-438v-574h674l-15-100h-948q-154 0-278.5 48t-213.5 138-137.5 218-48.5 288zM217 688q0-133 41-240.5t116-185.5 178-120 226-42h176v1166h-178q-127 0-230.5-41t-176-117-112.5-182.5-40-237.5z" glyph-name="OE" horiz-adv-x="1820" unicode="&#x152;"/><glyph d="M96 496q0 98 24.5 190t75 162 128 111.5 186.5 41.5q78 0 135-17t99-48 71-73 49-91q20 47 50 89t71 73 94.5 49 122.5 18q98 0 170-35.5t120-100 71.5-156 25.5-203.5h-669q0-88 17-167t54-139.5 97.5-96 146.5-35.5q102 0 158.5 47t97.5 125l80-43q-25-47-55.5-87t-70.5-69-93.5-46.5-120.5-17.5q-145 0-233.5 67t-129.5 179q-49-111-133-178.5t-225-67.5q-109 0-186.5 43t-128 116-75 166-24.5 194zM203 496q0-84 17-161t54-136 95.5-95 140.5-36 140.5 35.5 96 95 55 136.5 17.5 159q0 88-18.5 163.5t-56 132-96 89-138.5 32.5q-82 0-140.5-34.5t-95-92-54-132-17.5-156.5zM920 596h548q-10 166-85.5 240.5t-180.5 74.5q-113 0-188.5-77.5t-93.5-237.5z" glyph-name="oe" horiz-adv-x="1662" unicode="&#x153;"/><glyph d="M6 1360l117 14q39-80 82-159.5t91-163.5 105.5-175.5 126.5-191.5q68 102 123.5 190.5t103.5 170 89 158.5 80 157l129 16q-49-98-99.5-191t-106.5-188.5-122-197-145-217.5v-582h-113v590q-78 115-141.5 214t-118.5 191-103.5 180.5-97.5 184.5zM289 1610q0 41 23.5 65.5t62.5 24.5 62.5-24.5 23.5-65.5-23.5-65.5-62.5-24.5-62.5 24.5-23.5 65.5zM600 1610q0 41 23.5 65.5t62.5 24.5 62.5-24.5 23.5-65.5-23.5-65.5-62.5-24.5-62.5 24.5-23.5 65.5z" glyph-name="Ydieresis" horiz-adv-x="1058" unicode="&#x178;"/><glyph d="M57 1163l256 307h82l252-307-67-47-226 266-227-266z" glyph-name="circumflex" horiz-adv-x="704" unicode="&#x2c6;"/><glyph d="M47 1231q29 72 79 118t118 46q41 0 82-19.5t80-42.5q23-14 52-31.5t58-17.5q72 0 125 109l74-35q-31-78-80-120t-119-42q-33 0-68.5 17.5t-74.5 39.5q-39 23-66.5 38.5t-60.5 15.5q-70 0-125-113z" glyph-name="tilde" horiz-adv-x="759" unicode="&#x2dc;"/><glyph glyph-name="uni2000" horiz-adv-x="919" unicode="&#x2000;"/><glyph glyph-name="uni2001" horiz-adv-x="1839" unicode="&#x2001;"/><glyph glyph-name="uni2002" horiz-adv-x="919" unicode="&#x2002;"/><glyph glyph-name="uni2003" horiz-adv-x="1839" unicode="&#x2003;"/><glyph glyph-name="uni2004" horiz-adv-x="613" unicode="&#x2004;"/><glyph glyph-name="uni2005" horiz-adv-x="459" unicode="&#x2005;"/><glyph glyph-name="uni2006" horiz-adv-x="306" unicode="&#x2006;"/><glyph glyph-name="uni2007" horiz-adv-x="306" unicode="&#x2007;"/><glyph glyph-name="uni2008" horiz-adv-x="229" unicode="&#x2008;"/><glyph glyph-name="uni2009" horiz-adv-x="367" unicode="&#x2009;"/><glyph glyph-name="uni200A" horiz-adv-x="102" unicode="&#x200a;"/><glyph d="M92 489v107h434v-107h-434z" glyph-name="uni2010" horiz-adv-x="618" unicode="&#x2010;"/><glyph d="M92 489v107h434v-107h-434z" glyph-name="uni2011" horiz-adv-x="618" unicode="&#x2011;"/><glyph d="M92 489v107h434v-107h-434z" glyph-name="figuredash" horiz-adv-x="618" unicode="&#x2012;"/><glyph d="M0 479v96h1067v-96h-1067z" glyph-name="endash" horiz-adv-x="1067" unicode="&#x2013;"/><glyph d="M0 479v96h2134v-96h-2134z" glyph-name="emdash" horiz-adv-x="2134" unicode="&#x2014;"/><glyph d="M55 1112q0 43 19.5 84t49.5 76 67.5 62.5 74.5 43.5l31-55q-35-23-69.5-54.5t-57.5-76.5q70-16 70-94 0-41-26-66.5t-64-25.5q-41 0-68 27.5t-27 78.5z" glyph-name="quoteleft" horiz-adv-x="303" unicode="&#x2018;"/><glyph d="M6 1061q35 23 70 54.5t57 76.5q-70 16-70 94 0 41 26 66.5t65 25.5q41 0 67.5-27.5t26.5-78.5q0-43-19.5-84t-49-76-67.5-62.5-75-43.5z" glyph-name="quoteright" horiz-adv-x="303" unicode="&#x2019;"/><glyph d="M6-119q35 23 70 54.5t57 76.5q-70 16-70 94 0 41 26 67t65 26q41 0 67.5-28t26.5-79q0-43-19.5-84t-49-75.5-67.5-62.5-75-44z" glyph-name="quotesinglbase" horiz-adv-x="303" unicode="&#x201a;"/><glyph d="M55 1112q0 43 19.5 84t49.5 76 67.5 62.5 74.5 43.5l31-55q-35-23-69.5-54.5t-57.5-76.5q70-16 70-94 0-41-26-66.5t-64-25.5q-41 0-68 27.5t-27 78.5zM350 1112q0 43 19.5 84t49.5 76 67.5 62.5 74.5 43.5l31-55q-35-23-69.5-54.5t-57.5-76.5q70-16 70-94 0-41-26-66.5t-64-25.5q-41 0-68 27.5t-27 78.5z" glyph-name="quotedblleft" horiz-adv-x="598" unicode="&#x201c;"/><glyph d="M6 1061q35 23 70 54.5t57 76.5q-70 16-70 94 0 41 26 66.5t65 25.5q41 0 67.5-27.5t26.5-78.5q0-43-19.5-84t-49-76-67.5-62.5-75-43.5zM301 1061q35 23 70 54.5t57 76.5q-70 16-70 94 0 41 26 66.5t65 25.5q41 0 67.5-27.5t26.5-78.5q0-43-19.5-84t-49-76-67.5-62.5-75-43.5z" glyph-name="quotedblright" horiz-adv-x="598" unicode="&#x201d;"/><glyph d="M6-119q35 23 70 54.5t57 76.5q-70 16-70 94 0 41 26 67t65 26q41 0 67.5-28t26.5-79q0-43-19.5-84t-49-75.5-67.5-62.5-75-44zM301-119q35 23 70 54.5t57 76.5q-70 16-70 94 0 41 26 67t65 26q41 0 67.5-28t26.5-79q0-43-19.5-84t-49.5-75.5-67.5-62.5-74.5-44z" glyph-name="quotedblbase" horiz-adv-x="598" unicode="&#x201e;"/><glyph d="M102 766q0 61 24 116.5t64.5 97.5 95 65.5 117.5 23.5 117.5-23.5 95.5-65.5 65-97.5 24-116.5-24-116.5-65-96.5-95-64.5-118-23.5q-61-1-116 22-55 25-96 66t-65 95-24 118z" glyph-name="bullet" horiz-adv-x="806" unicode="&#x2022;"/><glyph d="M74 76q0 41 26.5 69.5t67.5 28.5 68.5-28.5 27.5-69.5q0-43-27.5-71t-68.5-28-67.5 28-26.5 71zM471 76q0 41 27.5 69.5t68.5 28.5 68-28.5 27-69.5q0-43-27-71t-68-28-68.5 28-27.5 71zM866 76q0 41 27 69.5t68 28.5 68.5-28.5 27.5-69.5q0-43-28-71t-68-28q-41 0-68 28t-27 71z" glyph-name="ellipsis" horiz-adv-x="1128" unicode="&#x2026;"/><glyph glyph-name="uni202F" horiz-adv-x="367" unicode="&#x202f;"/><glyph d="M61 514l365 408 72-62-299-340 331-336-69-63z" glyph-name="guilsinglleft" horiz-adv-x="589" unicode="&#x2039;"/><glyph d="M70 860l73 62 385-400-381-401-67 63 309 336z" glyph-name="guilsinglright" horiz-adv-x="589" unicode="&#x203a;"/><glyph glyph-name="uni205F" horiz-adv-x="459" unicode="&#x205f;"/><glyph d="M68 457l14 92h154q-2 25-3.5 58.5t-1.5 62.5v60.5t2 60.5h-165l14 94h160q27 236 137 364.5t285 128.5q76 0 133-17.5t100-49 73.5-75.5 55.5-95l-96-45q-39 80-99.5 133t-164.5 53q-127 0-209-100.5t-101-296.5h359l-15-94h-350q-2-29-2-60v-61q0-29 1-62t3-59h363l-15-92h-340q29-205 114-293t204-88q100 0 160.5 51t103.5 137l88-51q-25-49-56.5-92t-74.5-75-98.5-50.5-124.5-18.5q-170 0-283.5 115t-146.5 365h-178z" glyph-name="Euro" unicode="&#x20ac;"/><glyph d="M31 1290l10 76h461l-10-76h-183v-512h-84v512h-194zM541 778q6 145 18 295t31 293h33l206-465 209 465h31q16-143 28.5-295.5t18.5-292.5h-80q-6 111-10 200t-12 173l-168-375h-33l-170 379q-10-82-14-177t-6-200h-82z" glyph-name="trademark" horiz-adv-x="1193" unicode="&#x2122;"/><glyph d="M0 0v983h983v-983h-983z" glyph-name="uni25FC" horiz-adv-x="983" unicode="&#x25fc;"/></font>
</defs>
</svg>
