<svg xmlns="http://www.w3.org/2000/svg" viewBox="0 0 50.09 49.82"><defs><style>.cls-1{fill:#fafafa;}.cls-2{fill:#006c3a;}</style></defs><g id="Layer_2" data-name="Layer 2"><g id="Layer_1-2" data-name="Layer 1"><path class="cls-1" d="M50.09,24.89a24.38,24.38,0,0,1-.7,6.41c-.77,2.91-2.28,4.78-4,7.16-1.86,2.64-3.53,5.45-6.39,7-2,1.06-4.16,2-6.18,2.85C26.49,50.93,19.29,50,13.28,46.83A26.82,26.82,0,0,1,5.2,40.66C1,35.65-.33,28.69.07,22.32s2.66-10.49,7.24-15C8.92,5.69,9.59,4.7,11.72,4,14.41,3,16.91,1.36,19.61.77A31.79,31.79,0,0,1,28.89.09a23.88,23.88,0,0,1,9.57,3.43,23.54,23.54,0,0,1,9.79,11.42A29.25,29.25,0,0,1,50.09,24.89Z"/><path class="cls-2" d="M28,19.43a14.24,14.24,0,0,0-3,.35,14.18,14.18,0,0,1-3,.35s-.16,2.81,0,11.11,0,8.27,0,8.27a15.08,15.08,0,0,1,3,0,15,15,0,0,0,3,0s.4-1.58,0-8.62A88.53,88.53,0,0,1,28,19.43Z"/><path class="cls-2" d="M28.47,12.47A3.45,3.45,0,0,0,27,10.78a3.68,3.68,0,0,0-1.42-.51,4.88,4.88,0,0,0-1.37.1c-.4.09-.76.34-1.16.47a1.5,1.5,0,0,0-.65.49,3.11,3.11,0,0,0-1.07,2.23,3.9,3.9,0,0,0,.75,2.71,4.14,4.14,0,0,0,1.2.91,3.45,3.45,0,0,0,2.89.21,8.27,8.27,0,0,0,.91-.42,2.94,2.94,0,0,0,.95-1,3.22,3.22,0,0,0,.58-1.06,3.16,3.16,0,0,0,.1-.94A4,4,0,0,0,28.47,12.47Z"/></g></g></svg>