<svg xmlns="http://www.w3.org/2000/svg" viewBox="0 0 50.09 49.82"><defs><style>.cls-1{fill:#fafafa;}.cls-2{fill:#4bb131;}.cls-3{fill:#ff9837;}</style></defs><g id="Layer_2" data-name="Layer 2"><g id="Layer_1-2" data-name="Layer 1"><path class="cls-1" d="M50.09,24.89a24.38,24.38,0,0,1-.7,6.41c-.77,2.91-2.28,4.78-4,7.16-1.86,2.64-3.53,5.45-6.39,7-2,1.06-4.16,2-6.18,2.85C26.49,50.93,19.29,50,13.28,46.83A26.82,26.82,0,0,1,5.2,40.66C1,35.65-.33,28.69.07,22.32s2.66-10.49,7.24-15C8.92,5.69,9.59,4.7,11.72,4,14.41,3,16.91,1.36,19.61.77A31.79,31.79,0,0,1,28.89.09a23.74,23.74,0,0,1,9.57,3.44,23.47,23.47,0,0,1,9.79,11.41A29.25,29.25,0,0,1,50.09,24.89Z"/><path class="cls-2" d="M29.68,15.24s-7.57-.05-8.58-.24a46.63,46.63,0,0,0-5.37.13A18.79,18.79,0,0,1,13.62,15a5.77,5.77,0,0,0-2.31.24A1.35,1.35,0,0,0,10,16.59a25.93,25.93,0,0,0,0,4,29.13,29.13,0,0,1,0,4.11v2c0,.75.78,1.16,1.53,1.16,0,0-.2,0,.73.11s4,.08,4,.08l.27,1.85s-.1.61.72.4c.58-.15,2-2.25,2-2.25h1.89c1.2,0,2.61,0,2.61,0L24,29.87s-.11.61.72.4c.58-.15,2-2.25,2-2.25h3A1.35,1.35,0,0,0,31,26.67V16.59A1.36,1.36,0,0,0,29.68,15.24Z"/><path class="cls-3" d="M37.77,22.35s-6.08-.43-7.09-.24-8.59.24-8.59.24a1.34,1.34,0,0,0-1.35,1.35V33.78a1.35,1.35,0,0,0,1.35,1.36h3s1.4,2.09,2,2.24c.82.21.71-.4.71-.4l.28-1.84s3.06,0,4-.08,5.52-.12,5.52-.12c.75,0,1.53-.41,1.53-1.16v-2a27.68,27.68,0,0,1,0-4.11,27.27,27.27,0,0,0,0-4A1.35,1.35,0,0,0,37.77,22.35Z"/></g></g></svg>