<svg xmlns="http://www.w3.org/2000/svg" viewBox="0 0 50.15 49.88"><defs><style>.cls-1{fill:#fafafa;}.cls-2{fill:#868b8e;}.cls-3{fill:#363e42;}.cls-4{fill:#ffe90a;}.cls-5{fill:#006c3a;}.cls-6{fill:#ffcc32;}.cls-7{fill:#4bb131;}.cls-8{fill:#b7e0ad;}</style></defs><g id="Layer_2" data-name="Layer 2"><g id="Layer_1-2" data-name="Layer 1"><path class="cls-1" d="M50.15,24.91a23.94,23.94,0,0,1-.71,6.42c-.76,2.91-2.27,4.8-3.95,7.17-1.87,2.64-3.53,5.46-6.4,7a66,66,0,0,1-6.18,2.85C26.52,51,19.32,50,13.29,46.88A27,27,0,0,1,5.2,40.71C1,35.69-.33,28.73.07,22.35c.4-6.53,2.66-10.51,7.25-15.06C8.93,5.69,9.6,4.71,11.73,4c2.7-.94,5.2-2.6,7.9-3.2a31.93,31.93,0,0,1,9.3-.68A23.74,23.74,0,0,1,38.5,3.53,23.5,23.5,0,0,1,48.3,15,29.4,29.4,0,0,1,50.15,24.91Z"/><path class="cls-2" d="M21.21,24.47c-1.13.5-2.59,1.15-3.34.14-1.05-1.41-.16-5.16-.08-6.8,1.2,0,2.33-.54,3.54-.26.09,0,.5,5.94.61,6.61Z"/><path class="cls-3" d="M18.57,24.15c0,.21-.07.41-.1.61-1.87.29-.49-7-.68-7,1.2,0,2.33-.54,3.54-.26.21.05.1,2.18.06,2.43-.54-1.28-1.75-.4-2.23.47C18.58,21.51,18.77,23,18.57,24.15Z"/><path class="cls-4" d="M32.68,17.65c2.43,1.47,6-.3,6.66-3.17.79-3.42-4-6.17-6.79-4.43-2,1.29-2.37,4.45-1.11,6.38A3.88,3.88,0,0,0,32.68,17.65Z"/><path class="cls-5" d="M28.57,29.68c1.62,1,4.28,1.46,5.28,2.32,1.95,1.68.82,3.83-.64,5.38a14.45,14.45,0,0,1-2.79,2.33,10.82,10.82,0,0,1-2.78,1.6,20,20,0,0,0,5.85-.81,15.65,15.65,0,0,0,4.2-2.12c2.37-1.74,4.27-3.52,4.21-6.69a8.09,8.09,0,0,0-1.12-4.5,8,8,0,0,0-3.14-3.27c-2.78-1.45-5.64.36-8.23,1.54-1,.45-2.16,1.07-2.14,2.35A2.3,2.3,0,0,0,28.57,29.68Z"/><path class="cls-6" d="M33.25,16.74c1.85,1.11,4.57-.23,5.07-2.41.59-2.61-3.07-4.7-5.17-3.37a3.64,3.64,0,0,0-.84,4.85A3,3,0,0,0,33.25,16.74Z"/><path class="cls-7" d="M14.67,17.58a3.62,3.62,0,0,0,1.42.89c1.6.43,3.37-.37,5-.37a7.51,7.51,0,0,0,4.15-1c.8-.49,1.87-1.25,1.68-2.49-.15-1.06-2.57-1.77-2.57-1.73a3.64,3.64,0,0,0-3-3.64c-.52-.1-1.16.16-1.66,0-.3-.09-.48-.46-.82-.57a3.31,3.31,0,0,0-2.94.44c-.4.38-.3.9-.76,1.27-.31.25-.87.27-1.23.49A7,7,0,0,0,12,12.77c-.92,1.34-2.08,3.79.46,4.18.85.13.8-.22,1.56.2A4.72,4.72,0,0,1,14.67,17.58Z"/><path class="cls-8" d="M15.66,14.2c1.24-.18,2.66-.68,3.33-.79-1,.17-.56,2.22-.19,2.69a3.75,3.75,0,0,0,3.06,1.08c1.82,0,5.46.32,5-2.54-.15-1.06-2.57-1.77-2.57-1.73a3.53,3.53,0,0,0-1.86-3.36,6.59,6.59,0,0,0-1.9-.41c-1-.2-1.74-.74-2.77-.37a1.91,1.91,0,0,0-1.13.83c0,.08-.17,1-.06,1a6.54,6.54,0,0,0-2.73,2.23C13.15,14.17,14.52,14.37,15.66,14.2Z"/><path class="cls-5" d="M21.33,37.09c-.8.35-1.63.61-2.15.81a17.89,17.89,0,0,1-2.94.92c-1.64.32-3-.49-4.38-1.21a10.78,10.78,0,0,1-3.92-4.33,4.57,4.57,0,0,1,1.07-5,17.19,17.19,0,0,1,9.29-4.72A17.72,17.72,0,0,1,22.83,23,8.72,8.72,0,0,1,28,24.78c-1.7.55-7.81,2.13-7.42,5.74.2,1.8,2.38,2.1,3,3.58S22.77,36.45,21.33,37.09Z"/></g></g></svg>