<svg xmlns="http://www.w3.org/2000/svg" width="21.465" height="21.465" viewBox="0 0 21.465 21.465">
  <g id="Group_81" data-name="Group 81" transform="translate(-524.77 -106.42)">
    <path id="Path_201" data-name="Path 201" d="M546.233,117.142a10.433,10.433,0,0,1-.3,2.763,9.224,9.224,0,0,1-1.692,3.083A8.83,8.83,0,0,1,541.5,126a28.707,28.707,0,0,1-2.647,1.226,9.949,9.949,0,0,1-8.4-.631A11.485,11.485,0,0,1,527,123.938a11.339,11.339,0,0,1-2.2-7.9,9.063,9.063,0,0,1,3.106-6.481,4.453,4.453,0,0,1,1.889-1.429,32.743,32.743,0,0,1,3.379-1.377,13.485,13.485,0,0,1,3.979-.29,10.573,10.573,0,0,1,8.292,6.395A12.659,12.659,0,0,1,546.233,117.142Z" transform="translate(0 0)" fill="#ebebec"/>
    <path id="Path_202" data-name="Path 202" d="M542.855,121.494s-3.141-.021-3.56-.1a18.939,18.939,0,0,0-2.224.053c-.421-.015-.757-.03-.874-.053a2.379,2.379,0,0,0-.961.1.56.56,0,0,0-.559.56,11,11,0,0,0,0,1.648,11.724,11.724,0,0,1,0,1.706v.826c0,.309.324.481.634.481,0,0-.082-.01.3.045s1.654.035,1.654.035l.114.767s-.043.251.3.163c.24-.062.822-.93.822-.93h.783c.5.011,1.082,0,1.082,0l.115.767s-.044.251.3.163c.24-.062.822-.93.822-.93h1.253a.562.562,0,0,0,.563-.561v-4.18A.561.561,0,0,0,542.855,121.494Z" transform="translate(-5.54 -8.405)" fill="#4bb131"/>
    <path id="Path_203" data-name="Path 203" d="M552.57,128.6s-2.522-.177-2.942-.1-3.561.1-3.561.1a.558.558,0,0,0-.559.558v4.18a.56.56,0,0,0,.559.562h1.256s.583.869.822.931c.341.088.3-.165.3-.165l.115-.766s1.268.023,1.655-.033,2.287-.047,2.287-.047c.309,0,.634-.173.634-.483v-.827a11.642,11.642,0,0,1,0-1.7,10.958,10.958,0,0,0,0-1.649A.561.561,0,0,0,552.57,128.6Z" transform="translate(-11.683 -12.398)" fill="#ffcc32"/>
  </g>
</svg>
