<svg xmlns="http://www.w3.org/2000/svg" width="65.45" height="57.704" viewBox="0 0 65.45 57.704"><path d="M317.241,126.786a3.23,3.23,0,0,0,.407.183c2.571.944,1.814.433,4.35-1.228,7.691-5.039,16.176-12.745,24.515-3.715,9.881,10.7,4.828,23.022-5.12,31.167-5.292,4.331-8.879,9.014-12.9,14.423a32.05,32.05,0,0,1-8.392,7.812c-2.825,1.725-14.743-14.046-16.785-16.3-5.314-5.863-10.641-10.845-14.595-17.891a18.6,18.6,0,0,1-1.992-12.216c2.459-11.148,16.846-12.736,24.855-7.39C313.313,122.785,315.41,125.8,317.241,126.786Z" transform="translate(-286.409 -117.856)" fill="#006c3a"/></svg>