<svg xmlns="http://www.w3.org/2000/svg" width="66.965" height="57.579" viewBox="0 0 66.965 57.579"><g transform="translate(0 0)"><path d="M1170.979,791.089a19.374,19.374,0,0,0-6.465-1.622,23.9,23.9,0,0,0-7.162,1.506c-4.244,1.321-9.981,4.281-14.4,4.261-3.915-.02-7.585-2.428-11.616-2.595-2.441-.1-5.079.822-7.489,1.116-2.661.326-5.774.922-7.821,2.821,4.169-.753,7.26-2.1,11.394-.36-1.828,1.889-5.973,2.052-8.442,3.371-1.036.554-7.21,4.342-6.653,5.959.426,1.248,5.391-2.422,6.174-2.824,2.3-1.179,4.088-2.009,6.637-1.5-.012,1.914-5.574,5.177-4.5,7.057.68,1.195,1.922.12,2.687-.279,3.286-1.726,6.03-4.778,9.545-6.028,2.5-.89,5-.269,7.561-.1,4.942.32,11.084,1.15,15.168,4.175,1.378,1.022,3.493,5.439,5.466,3.793-.829-2.29-3.094-3.713-4.069-5.869,3.255-.075,5.969,2.152,8.68,3.809.867.533,3.943,3.717,4.587,1.893.541-1.529-3.443-5.038-4.4-5.735-1.916-1.4-4.562-1.761-6.3-3.377,4.464-2.325,10.219-.58,14.356,1.6,1.816.957,5.13,1.706,2.7-1.189-1.58-1.881-4.674-3.147-6.84-4.071-1.059-.452-2.139-1.148-3.233-1.5-1.334-.43-3.416.037-4.279-1.075,2.7-1.8,9.329.1,10.756-1.836A5.662,5.662,0,0,0,1170.979,791.089Z" transform="translate(-1110.508 -752.65)" fill="#b9992c"/><path d="M1127.739,780.735c2.828-.342,4.35-5.557,6.461-7.312,3.145-2.614,7.823-2.964,11.705-2.532,3.233.358,6.016.3,7.7,3.556,1.429,2.764,4.7,3.609,6.354,6.032,2.951-1.256,6.783-2.569,10.03-2.119a11.845,11.845,0,0,1,8.1,5.572c-.714.737-.829,2.115-1.6,2.769-1.056.891-3.564,1.325-5.046,1.6-3.627.666-6.844-2.787-10.111-2.021.149,4.381-1.618,8.434-3.2,12.418-1.325,3.33-4.135,6.6-3.947,10.339.214,4.194,2.7,8.149-.318,12.013-1.942,2.475-6.565,2.7-9.486,2.762-3.7.073-10.946-.629-11.455-5.49-.554-5.262,2.736-10.077.006-15.353-1.327-2.565-3.111-4.829-4.326-7.575a17.791,17.791,0,0,1-1.462-5.167c-.114-1.254.641-2.667-.411-3.735-2.667,2.982-9.462,3.729-12.479,1.337-.973-.773-3.088-2.931-2.85-4.255.338-1.861,4.542-3.033,6.125-3.507a14.681,14.681,0,0,1,5.474-.753C1124.352,779.465,1126.4,780.894,1127.739,780.735Z" transform="translate(-1111.385 -770.735)" fill="#d4af34"/><path d="M1132.544,792.211c-1.551-6.247,10.274-9.869,6.618-15.591-2.559-4-9.293-4.24-12.7-1.545-4.181,3.3-1.661,5.195.411,9.358,1.232,2.469-.106,5.1,1.482,7.549a13.96,13.96,0,0,1,2.818,7.962c.354-1.47,1.419-2.443,1.842-3.766C1133.554,794.5,1132.967,793.911,1132.544,792.211Z" transform="translate(-1099.007 -768.266)" fill="#fafafa"/><path d="M1131.816,803.842a4.186,4.186,0,0,0,3.375-2.687c.476-1.708-.93-2.129-1.836-3.163a6.8,6.8,0,0,1-1.862-4.155c-.027-.187-.6-4.2-.987-3.827-2.51,2.427-1.332,6.6-3.359,9.262-.806,1.063-2.53,2-1.362,3.279C1126.986,803.872,1129.62,804.338,1131.816,803.842Z" transform="translate(-1097.861 -752.148)" fill="#fafafa"/></g></svg>