<svg xmlns="http://www.w3.org/2000/svg" viewBox="0 0 50.09 49.82"><defs><style>.cls-1{fill:#fafafa;}.cls-2{fill:#006c3a;}.cls-3{fill:#ffcc32;}.cls-4{fill:#4bb131;}</style></defs><g id="Layer_2" data-name="Layer 2"><g id="Layer_1-2" data-name="Layer 1"><path class="cls-1" d="M50.09,24.89a24.38,24.38,0,0,1-.7,6.41c-.77,2.91-2.28,4.78-4,7.16-1.86,2.64-3.53,5.45-6.39,7-2,1.06-4.16,2-6.18,2.85C26.49,50.93,19.29,50,13.28,46.83A26.82,26.82,0,0,1,5.2,40.66C1,35.65-.33,28.69.07,22.32s2.66-10.49,7.24-15C8.92,5.69,9.59,4.7,11.72,4,14.41,3,16.91,1.36,19.61.77A31.79,31.79,0,0,1,28.89.09a23.74,23.74,0,0,1,9.57,3.44,23.47,23.47,0,0,1,9.79,11.41A29.25,29.25,0,0,1,50.09,24.89Z"/><path class="cls-2" d="M10.49,31.81l2.16-1.21.67-.41,2.08-1.36.67-.41,2.17-1.19.69-.38,2.15-1.23c.19-.1-.95.49.68-.39A16.63,16.63,0,0,0,23.89,24h0a14,14,0,0,0,0-1.77V18.91c0-.21,0-.56,0-.78l-.05-2.48c0-.21,0-.57,0-.78L24,12.39c0-.22,0-.57,0-.79l0-2.48c0-.21,0-.56,0-.78,0,0,.44-1.29-.06-1.49S20,7.5,18.23,8.24a17.55,17.55,0,0,0-5.68,4A17.78,17.78,0,0,0,7.23,24.75a18.17,18.17,0,0,0,1.14,6.92c.15.35.25,1,.49,1a4.6,4.6,0,0,0,.94-.49Z"/><path class="cls-3" d="M38.53,33.15l-2.16-1.22c-.18-.11-.5-.27-.69-.36l-2.26-1-.7-.35L30.53,29l-.69-.37-2.21-1.13-.69-.36s-1.64-1-2.05-1.13-2,1.2-2,1.2l-.67.39-2.16,1.22-.68.39-2.14,1.26c-.19.11-.5.28-.69.37L14.35,32c-.19.09-.5.27-.68.38l-2.11,1.31-.67.4s-.81.27-.82.47a20.06,20.06,0,0,0,2.46,2.75,18.17,18.17,0,0,0,5.58,4.28,18.41,18.41,0,0,0,7,1.21,17.84,17.84,0,0,0,6.79-1.65c2.19-.91,4.47-1.83,6.12-3.48,1-1,3-3,2.66-3.39a4.24,4.24,0,0,0-1.42-.75Z"/><path class="cls-4" d="M32.47,22.71l3-3,.86-.84L39.43,16c.26-.24.67-.66.92-.91l0,0a16.82,16.82,0,0,0-2.32-3l-.69.67-.89.86-3,3c-.26.25-.66.67-.9.94l-2.83,3.16c-.21.23-.57.6-.8.81L26.18,24v.14l1.82,1,.69.37.64.33,2.26-2.22Z"/><path class="cls-4" d="M28.42,7.77l.51-.48a16.24,16.24,0,0,0-2.72-.43V8.34c0,.22,0,.57,0,.79l0,.86L27.55,8.6Z"/><path class="cls-4" d="M37,27.28l3-3,.87-.84,1.86-1.73a14.13,14.13,0,0,0-.91-3.86l-.23.23-3,2.95c-.25.25-.66.68-.9.95l-2.83,3.15c-.21.23-.57.6-.8.81L32.46,27.4l1.36.68c.19.09.5.26.68.37l.81.49.8-.79Z"/><path class="cls-4" d="M27.37,18.19l3-3c.23-.23.63-.61.87-.83l3.09-2.89c.27-.25.68-.66.92-.92l.41-.43a25.79,25.79,0,0,0-3.44-1.74L30.64,9.92c-.26.25-.66.67-.9.94L26.91,14c-.18.19-.47.49-.69.7v.15c0,.22,0,.57,0,.78l0,2.48v1.21l.28-.27Z"/><path class="cls-4" d="M39.34,29.7c-.2.23-.57.6-.8.82l-.15.14,1.14.58.7.34,1.46.7q.14-.27.24-.54a16,16,0,0,0,.92-5.91l-.68.72Z"/></g></g></svg>