<svg xmlns="http://www.w3.org/2000/svg" xmlns:xlink="http://www.w3.org/1999/xlink" viewBox="0 0 212.39 178.48"><defs><style>.cls-1{fill:#c60c30;}.cls-2{fill:#fff;}.cls-3{fill:url(#linear-gradient);}</style><linearGradient id="linear-gradient" x1="-6.14" y1="79.41" x2="218.53" y2="99.07" gradientUnits="userSpaceOnUse"><stop offset="0" stop-opacity="0.1"/><stop offset="0.08" stop-color="#202020" stop-opacity="0.11"/><stop offset="0.18" stop-color="#797979" stop-opacity="0.15"/><stop offset="0.3" stop-color="#fff" stop-opacity="0.2"/><stop offset="0.38" stop-color="#969696" stop-opacity="0.2"/><stop offset="0.47" stop-color="#424242" stop-opacity="0.2"/><stop offset="0.57" stop-color="#101010" stop-opacity="0.2"/><stop offset="0.7" stop-opacity="0.2"/><stop offset="0.84" stop-color="#fff" stop-opacity="0.05"/><stop offset="1" stop-opacity="0.2"/></linearGradient></defs><g id="Layer_2" data-name="Layer 2"><g id="Countryflags.com"><g id="Layer_4" data-name="Layer 4"><path id="_3" data-name="3" class="cls-1" d="M0,9.24c70.8,32,141.59-32,212.39,0v160c-70.8-32-141.59,32-212.39,0Z"/><path id="_2" data-name="2" class="cls-2" d="M91.08,172.59c-7.64,1.62-15.27,3.08-22.91,4.14v-160c7.64-1.06,15.27-2.52,22.91-4.14Z"/><path id="_1" data-name="1" class="cls-2" d="M0,100.69V77.78c70.8,32,141.59-32,212.39,0v22.91C141.59,68.69,70.8,132.69,0,100.69Z"/></g><path class="cls-3" d="M212.39,169.24c-70.8-32-141.59,32-212.39,0V9.24c70.8,32,141.59-32,212.39,0Z"/></g></g></svg>