<svg xmlns="http://www.w3.org/2000/svg" width="21.624" height="35.775" viewBox="0 0 21.624 35.775"><path d="M17.725,23.222c-3.027,5.329-5.184,11.249-.57,15.624,5.059,4.8,12.441,4.334,16.122.207,2.747-3.11,3.11-5.8,2.685-9.331-.539-4.468-4.655-9.611-7.05-13.3-2.229-3.452-2.074-6.615-3-8.947-.425-1.172-.56-1.14-.85-.549-.508,3.318-2.395,7.1-3.826,9.715C20.2,18.422,19.166,20.661,17.725,23.222Z" transform="translate(-14.487 -6.523)" fill="#fafafa"/><path d="M20.721,25.178c.1-.9.187-1.825.207-2.768a15.075,15.075,0,0,0-3.587,8.356c-.27,2.685.736,6.4,3.369,7.61,1.856.861,4.7.4,3.245-2.074-1.037-1.783-2.8-2.664-3.442-4.686S20.483,27.169,20.721,25.178Z" transform="translate(-14.384 -5.939)" fill="#dcdcdc"/></svg>