<svg xmlns="http://www.w3.org/2000/svg" viewBox="0 0 37.23 21.82"><defs><style>.cls-1{fill:#4bb131;}.cls-2{fill:#006c3a;}</style></defs><g id="Layer_2" data-name="Layer 2"><g id="Layer_1-2" data-name="Layer 1"><path class="cls-1" d="M.1,1.39c1.11,0,3.09.17,3.3.12a36.16,36.16,0,0,1,3.76.8A20.81,20.81,0,0,1,9.72,3.42a6.46,6.46,0,0,1,1.91,1.36c.43.54.93,1.09,1.23,1.41a5.06,5.06,0,0,1,.79,1.53c0,.09.38,1.74.34,2A9.24,9.24,0,0,1,13.4,12c-.34-.63-.66-1.07-1-1.79s-.81-1.12-1.08-1.62A7.1,7.1,0,0,0,9.73,6.77a19.27,19.27,0,0,1-1.9-1.55A6.69,6.69,0,0,0,6,4.13C5.3,3.85,4.22,3.33,3.18,3a17.07,17.07,0,0,1,2,1.21,9.83,9.83,0,0,0,1.28.93A11.17,11.17,0,0,1,8.78,7.19a9.82,9.82,0,0,0,1.6,1.88A6.72,6.72,0,0,1,12,11.53a17.7,17.7,0,0,0,1,2.15,5.34,5.34,0,0,1,.52,2c0,.35.19,1.64.11,2.54-.08.45-.35.87-.47.35s-.22-1.47-.24-2a2.4,2.4,0,0,0-.39-1.34c-.3-.49-.39-.92-.66-1.38a5.38,5.38,0,0,1-1.89.69,5.83,5.83,0,0,1-3-.78,10.53,10.53,0,0,1-1.81-1.35c-.07-.07-.09,0-.23-.22s-.83-.91-1.25-1.51A12.18,12.18,0,0,1,2.31,8.1,7.43,7.43,0,0,1,1.72,6,4.29,4.29,0,0,0,1.33,4.1,10.47,10.47,0,0,1,.81,2.78,3.53,3.53,0,0,0,.07,1.64h0C-.06,1.48,0,1.42.1,1.39Z"/><path class="cls-2" d="M37.11.7C35.56.36,32.73.16,32.45,0A46.44,46.44,0,0,0,27,.21a30.68,30.68,0,0,0-3.87.92,9,9,0,0,0-3,1.44c-.74.66-1.59,1.3-2.1,1.67a7.57,7.57,0,0,0-1.48,1.94c0,.14-1,2.36-1,2.76a12.85,12.85,0,0,0,.25,3.37c.63-.81,1.19-1.35,1.87-2.26S19,8.68,19.55,8a10.24,10.24,0,0,1,2.68-2.19,28.25,28.25,0,0,0,3.06-1.72,9.65,9.65,0,0,1,2.88-1c1-.24,2.67-.69,4.22-1a23.71,23.71,0,0,0-3.12,1.2,13.18,13.18,0,0,1-2,1,15.86,15.86,0,0,0-3.79,2.36,14.31,14.31,0,0,1-2.71,2.24A9.23,9.23,0,0,0,17.92,12,23.74,23.74,0,0,1,16,14.74a7.59,7.59,0,0,0-1.22,2.62c0,.5-.69,2.26-.79,3.55,0,.64.27,1.31.57.61s.69-2,.82-2.69A3.61,3.61,0,0,1,16.27,17c.55-.62.79-1.2,1.29-1.77A7.45,7.45,0,0,0,20,16.71a8.41,8.41,0,0,0,4.37-.35,15.17,15.17,0,0,0,2.88-1.44c.13-.08.14,0,.38-.25s1.4-1.07,2.13-1.81a16.9,16.9,0,0,0,2.52-3.29A10.45,10.45,0,0,0,33.69,6.7a6.14,6.14,0,0,1,1-2.51,14.23,14.23,0,0,0,1.06-1.73,5.26,5.26,0,0,1,1.32-1.41h0C37.31.86,37.23.76,37.11.7Z"/></g></g></svg>