<svg xmlns="http://www.w3.org/2000/svg" width="40.946" height="63.613" viewBox="0 0 40.946 63.613"><path d="M89.137,774.224c.65-3.246-6.644-3.792-8.15-4a90.957,90.957,0,0,0-16.69-.9c-4.616.18-16.484.139-16.054,5.7.8,10.425,6.414,48.112,6.814,51.721s1.2,5.215,4.011,5.615,18.192,1.221,23.252-.8c2.006-.8,3.209-2.006,3.609-5.615S89.074,774.547,89.137,774.224Z" transform="translate(-48.232 -769.254)" fill="#787878"/><path d="M50.665,780.662l3.609,34.88a4.453,4.453,0,0,0,3.207,2.408c4.412.8,14.086,1.11,19.647,0,2-.4,2.8-.8,3.609-4.812s2.8-27.664,2.8-32.476Z" transform="translate(-45.843 -758.053)" fill="#fafafa"/><path d="M50.7,782.729c.305,2.218,9.511,1.881,10.534,1.958a76.005,76.005,0,0,0,13.331.063c1.978-.2,6.929-.188,8.277-1.693,2.18-2.424-4.247-3.1-5.641-3.288a78.823,78.823,0,0,0-13.531-.682C59.924,779.223,50.329,780.067,50.7,782.729Z" transform="translate(-45.823 -759.65)" fill="#dcdcdc"/><path d="M70.527,772.457l-6.087.692-1.6,50.229,2.88-.8Z" transform="translate(-33.892 -766.11)" fill="#fafafa" opacity="0.6"/><path d="M48.425,774.111c.377,2.913,11.735,2.471,12.992,2.575a88.219,88.219,0,0,0,16.448.083c2.44-.264,8.55-.25,10.213-2.226,2.682-3.185-5.238-4.079-6.961-4.321a90.978,90.978,0,0,0-16.692-.9C59.808,769.5,47.969,770.613,48.425,774.111Z" transform="translate(-48.055 -769.254)" fill="none"/></svg>