<svg xmlns="http://www.w3.org/2000/svg" width="65.45" height="57.704" viewBox="0 0 65.45 57.704"><g transform="translate(-4544.909 2041.796)"><path d="M317.241,126.786a3.23,3.23,0,0,0,.407.183c2.571.944,1.814.433,4.35-1.228,7.691-5.039,16.176-12.745,24.515-3.715,9.881,10.7,4.828,23.022-5.12,31.167-5.292,4.331-8.879,9.014-12.9,14.423a32.05,32.05,0,0,1-8.392,7.812c-2.825,1.725-14.743-14.046-16.785-16.3-5.314-5.863-10.641-10.845-14.595-17.891a18.6,18.6,0,0,1-1.992-12.216c2.459-11.148,16.846-12.736,24.855-7.39C313.313,122.785,315.41,125.8,317.241,126.786Z" transform="translate(4258.5 -2159.652)" fill="#006c3a"/><g transform="translate(4548.113 -2029.447)"><path d="M288.331,144.872a15.685,15.685,0,0,1,1.216-2.78c1.25-2.967.633-5.153.525-8.264-.08-2.285.557-5.824,2.227-7.487,1.6-1.592,4.331-1.667,6.439-1.5.873.067,1.624.527,2.468.641.88.118,1.884-.084,2.8,0,2.13.209,4.206.772,6.319,1.114a33.641,33.641,0,0,0,8.616.14,83.445,83.445,0,0,1,8.371-.533,17.419,17.419,0,0,1,6.872,1.179c1.319.658,1.7,2.106,2.309,3.333.506,1.02,1.142,2.136,1.79,3.309,1.358,1.895,2.347,4.034,3.767,5.893-1.416-1.855,5.415-2.442,5.408-2.352-.168,2.177-2.334,2.728-3.991,3.513.764.891,2.035.886,2.726,1.885.85,1.226.269,2.027-.021,3.332-.318,1.422-.129,2.866-.338,4.288a19.387,19.387,0,0,0-.293,3.817,3.108,3.108,0,0,1-1.592,1.082c-.613-.372-1.433-.415-2.018-.817a5.7,5.7,0,0,1-1.405-1.646c-.7-1.106-1.323-2.422-1.973-3.229-.566-.7-.775-1.627-1.4-2.281a5.447,5.447,0,0,0-1.715-1.114c-2.128-.7-7.007-2.3-8.571-.013-.355.516-.1,1.543-.183,2.139-.166,1.269-.775,2.511-.818,3.8-.073,2.3,1.357,2.835,1.958,4.724a2.751,2.751,0,0,1-2.218.129c-.835-.306-.486-.1-.916-.917a25.4,25.4,0,0,1-.917-2.58c-.323.527-.277,3.524.639,3.481-.9.041-2.087-.211-2.842.262-.362-.676-.22-2.21-1.164-2.2a22.406,22.406,0,0,0,.867-7.881,5.051,5.051,0,0,0-.136-1.706c-.346-.979-.086-.667-1.2-.787-2.121-.23-4.191.338-6.3.135-1.971-.191-4-.475-5.919-.852-1.994-.391-4.283-.807-6.271-.243-.6.17-1.659.831-1.766,1.513s.817,1.284.86,2.068c.1,1.94.092,4.086,1.216,5.779.9,1.364,2.463,2.283,2.975,3.913-1.327-.084-3.247.746-4.058-.374-.3-.413-.028-1.069-.518-1.482-.6-.5-1.3,0-1.689-.906a9.86,9.86,0,0,1-.024-1.814,4.947,4.947,0,0,0-.519-1.831,29.743,29.743,0,0,1-2-3.9,11.455,11.455,0,0,0-1.555,5.336c.1,1.822,1.949,3.33,1.833,5.1a16.3,16.3,0,0,1-3,.127c.772-1.609-1.73-2.663-1.555-4.3.086-.811.62-1.428.633-2.36a12.859,12.859,0,0,0-.43-3.681c-.344-1.183-.708-1.368.037-2.466,2.689-3.982.127-6.934-.562-11.166-.413,1.022.11,3.163.168,4.32a7.1,7.1,0,0,1-.632,3.707,6.743,6.743,0,0,0-1.117,2.743c-.071,1.809.34,2.967-.992,4.544C288.6,147.546,288.086,146.107,288.331,144.872Z" transform="translate(-288.266 -124.778)" fill="#363e42"/><path d="M292.709,129.882c.908-.633,1.956-.99,2.818-1.611.822-.59.815-1.764,1.332-2.543.824-1.237,1.116-.691,2.476-.508.882.118,2.025-.09,2.945,0a28.29,28.29,0,0,1,4.925,1.033,11.77,11.77,0,0,0-3.124,8.481c.2,2.222,2.537,4.219,3.449,6.194.467,1.015,1.529,2.61,1.519,3.705a29.543,29.543,0,0,1-3.4-.493c-.766-.151-2.278-.654-2.978-.329-.2.093-.469.276-.66.391.011.577.944,2.608-.256,2.311-.807-.2-.379-2.588-1.723-1.818.359,1.314.353,3.318-.671,1.323-.31-.6-.478-2-1.05-.826-.241.5.1,1.6.129,2.134a22.025,22.025,0,0,1,.249,2.457c-.755-.736-1.521-.85-1.981-1.936a12.989,12.989,0,0,1-.49-3.113c-.211-1.4.144-1.349,1.478-2.037a6.578,6.578,0,0,0,2.717-2.192c1.7-2.536-.34-2.186-1.19-3.939-.351-.719.284-1.678-.624-2.453-.654-.559-1.613-.254-2.5-.172-1,.1-3.449.824-4.328.4a3.668,3.668,0,0,1-1.086-2.452c.157-.71,1.015-1.173,1.56-1.654A5.12,5.12,0,0,1,292.709,129.882Z" transform="translate(-286.172 -124.636)" fill="#fafafa"/><path d="M303.009,125.9a36.248,36.248,0,0,1,3.93-.028c3.69-.25,3.5,6.125,6.934,6.011,1.241-.041,1.358-.542,1.9.654.5,1.1.785,2.446-.179,3.048-1.013.632-2.543-.155-3.539.531-.684.465-.773,1.579-.938,2.429-.075.405-.516.454-.406.944.077.344.871.882,1.125,1.155a4.6,4.6,0,0,1,1.407,2.1c.032.136-1.9.645-2.1.792-.693.523-1.039,1.893-1.529,2.564-.4-2.623-1.347-2.025-3.171-2.169A11.372,11.372,0,0,0,308,139.32a4.465,4.465,0,0,0-1.28-3.778c-.318-.282-.854-.254-1.271-.643-.626-.585-.383-.787-.742-1.459a5.46,5.46,0,0,1-.9-2.661c-.136-1.6.284-4.468-2.067-4.8C301.932,125.928,302.811,125.932,303.009,125.9Z" transform="translate(-276.566 -123.884)" fill="#fafafa"/></g></g></svg>