<svg xmlns="http://www.w3.org/2000/svg" width="68.307" height="66.022" viewBox="0 0 68.307 66.022"><g transform="translate(-21.108 -10.932)"><path d="M1043.513,789.849c-.076-.1-.151-.21-.227-.326-1.324-2.029-.675-8.325-.648-10.689s-.74-8.3,1.241-10.006c2.924-2.508,10.978-.16,10.119,3.787-.926,4.269-2.992,7.081-4.871,10.881C1048.533,784.7,1046.5,793.847,1043.513,789.849Z" transform="translate(-986.462 -756.859)" fill="#363e42"/><path d="M1048.054,783.394a38.05,38.05,0,0,1,4.6,1.412c2.894.828,13.754,2.183,13.88,6.462.037,1.177-3.264,7.633-4.848,6.716-3.038-1.756-5.746-2.925-8.511-5.242-2.045-1.714-3.984-3.548-6.051-5.232C1044.9,785.71,1044.081,782.7,1048.054,783.394Z" transform="translate(-980.727 -741.068)" fill="#363e42"/><path d="M1050.136,786.321c-2.559,2.362-7.55,4.643-8.949,5.812-2.383,2-4.152,4.106-7.117,5.494-1.46-1.119-5.93-5.834-5.7-7.83.2-1.729,1.942-1.727,3.351-2.182,1.385-.453,19.777-7.635,19.951-3.925A3.77,3.77,0,0,1,1050.136,786.321Z" transform="translate(-999.799 -740.852)" fill="#363e42"/><path d="M1047.539,783.816a2.888,2.888,0,1,1-2.887-2.885A2.886,2.886,0,0,1,1047.539,783.816Z" transform="translate(-986.882 -743.758)" fill="#363e42"/><path d="M1041.388,806.706c.1-1.955.488-4.026.5-5.346.052-4.579.418-9.159.422-13.751,0-3.185,4.98-3.585,4.98,0,0,7.694,1.521,15.528,1.106,23.171-1.279-.779-4.753-.464-6.184.258C1041.419,810.086,1041.294,808.442,1041.388,806.706Z" transform="translate(-987.233 -739.331)" fill="#363e42"/><path d="M1030.238,798.857c4.146,1.44,7.506-1.084,11.533-1.567,3.177-.379,4.455,1.523,7.359,2.255,5.467,1.379,9.32-4.433,14.567-3.135,2,.491,3.522,2.3,5.659,2.52,2.631.269,3.922-1.582,6.244-2.515,3.972-1.594,4.188,2.185,7.373,3.161,2.538.775,10.021-.869,11.1-3.54-1.2,2.971-3.492,7.762-6.67,9.3-3.088,1.5-6.1-.488-8.823-1.18-3.078-.788-3.878,1.329-6.844,1.373-2.284.037-3.984-1.883-6.216-2.193-4-.551-6.377,1.992-9.857,2.73-3.506.74-6.125-1.366-9.465-2.134-4.207-.97-7.918,1.316-12.057,1.167-4.584-.164-7.018-4.485-8.375-7.942C1027.469,797.591,1028.78,798.353,1030.238,798.857Z" transform="translate(-1004.657 -729.271)" fill="#006c3a"/></g></svg>