<svg xmlns="http://www.w3.org/2000/svg" xmlns:xlink="http://www.w3.org/1999/xlink" viewBox="0 0 49.6 50.29"><defs><style>.cls-1{fill:none;}.cls-2{fill:#ebebec;}.cls-3{clip-path:url(#clip-path);}.cls-4{fill:#3d6c40;}.cls-5{fill:#c7cad0;}.cls-6{fill:#74ab42;}</style><clipPath id="clip-path"><ellipse class="cls-1" cx="24.8" cy="25.15" rx="21.11" ry="20.68"/></clipPath></defs><g id="Layer_2" data-name="Layer 2"><g id="Layer_1-2" data-name="Layer 1"><path class="cls-2" d="M42.48,7.56a23.86,23.86,0,0,1,4,5c1.51,2.58,1.77,5,2.26,7.81.55,3.17,1.35,6.32.42,9.41a65,65,0,0,1-2.34,6.35C44.19,42.47,38.46,46.85,32,48.87a26.43,26.43,0,0,1-10,1.35c-6.47-.58-12.3-4.53-16.5-9.29S0,31.68,0,25.26c0-2.25-.2-3.42.77-5.44C2,17.27,2.6,14.35,4.08,12a31.42,31.42,0,0,1,6.06-7A23.44,23.44,0,0,1,19.28.72a23.24,23.24,0,0,1,14.9,1.14A28.93,28.93,0,0,1,42.48,7.56Z"/><g class="cls-3"><path class="cls-4" d="M47.72,22.16l-9.39-4.54-2.83-.19L30,18.75H25.31l-5.85-1.13-7-1.51L4.55,19.5,2,20.63s-2.4-.25.06,9.46S13.17,47.34,19,48.34s21.72-4.5,24.22-8,5.12-10.62,5-13.75A21.84,21.84,0,0,0,47.72,22.16Z"/><path class="cls-1" d="M15,22.25c2.37,2.86,5.89,6,10,6.09,3.1.08,6.13-1.59,9.06-5A41.39,41.39,0,0,1,15,22.25Z"/><path class="cls-1" d="M13.61,20.34a39.66,39.66,0,0,0,21.73,1.43c.7-.93,1.38-2,2.07-3.09l-.87.14a92.26,92.26,0,0,1-11.71,1.35c-3.84,0-10.33-2-12.17-2.57l-.66.34c.27.47.81,1.37,1.58,2.46Z"/><path class="cls-1" d="M24.93,32.08c5.32.13,10.49-3.92,15.35-12-.56-.29-1.1-.59-1.59-.9C34.44,26.26,29.82,29.8,25,29.68c-7.58-.19-13.06-9.19-14.15-11.12L9,19.45C10.73,22.31,17,31.89,24.93,32.08Z"/><polygon class="cls-5" points="14.24 21.73 16.59 25.57 20.21 27.7 24.27 28.56 27.89 28.56 30.66 27.49 32.59 25.79 34.93 23.86 35.36 22.59 30.02 23.44 26.61 23.44 21.28 23.01 14.24 21.73"/><path class="cls-6" d="M47.8,20.57C44.26,19.24,41,17.94,39,16.41a1.22,1.22,0,0,0-.73-.25,19.18,19.18,0,0,0-2,.29,91.09,91.09,0,0,1-11.33,1.31c-4,0-11.83-2.58-11.91-2.61a1.26,1.26,0,0,0-.95.08c-.07,0-5,2.7-9.74,4.81,0,0-2.59,5.86,1.37,14.48S16.57,49.39,27,48s15.64-7.84,18.34-11.33,2.91-12,2.91-12Zm-35.06-3c1.85.59,8.34,2.57,12.18,2.57a92.68,92.68,0,0,0,11.71-1.35l.86-.14c-.68,1.13-1.37,2.16-2.06,3.09a39.73,39.73,0,0,1-21.74-1.43l0,.06c-.77-1.09-1.31-2-1.59-2.46Zm21.39,5.78c-2.92,3.37-6,5-9.05,5-4.09-.1-7.61-3.23-10-6.09A41.4,41.4,0,0,0,34.13,23.38ZM10.89,18.56c1.1,1.93,6.58,10.93,14.16,11.12,4.86.12,9.47-3.42,13.72-10.53.5.31,1,.61,1.6.9-4.87,8.11-10,12.16-15.35,12-8-.19-14.21-9.77-15.89-12.63ZM1.12,23.17c2.25-.93,4.7-2.08,6.81-3.12C9.63,23,16.15,33.2,25,33.42c5.86.14,11.44-4.16,16.6-12.79,1.73.81,3.68,1.56,5.72,2.32,0,0,1.93,3-1.39,9.77S38.09,46.34,31.72,47.47s-16.94.82-20.28-2.22S3.09,34.59,3.09,34.59Z"/></g></g></g></svg>